<svg width="40" height="41" viewBox="0 0 40 41" fill="none" xmlns="http://www.w3.org/2000/svg">
    <path fill-rule="evenodd" clip-rule="evenodd" d="M20 40.5C31.0457 40.5 40 31.5457 40 20.5C40 9.4543 31.0457 0.5 20 0.5C8.9543 0.5 0 9.4543 0 20.5C0 31.5457 8.9543 40.5 20 40.5ZM20 5.5C18.6193 5.5 17.5 6.61929 17.5 8C17.5 9.38071 18.6193 10.5 20 10.5C21.4774 10.5 22.9403 10.791 24.3052 11.3564C25.6701 11.9217 26.9103 12.7504 27.955 13.795C28.9996 14.8397 29.8283 16.0799 30.3937 17.4448C30.959 18.8097 31.25 20.2726 31.25 21.75C31.25 23.1307 32.3693 24.25 33.75 24.25C35.1307 24.25 36.25 23.1307 36.25 21.75C36.25 19.616 35.8297 17.5029 35.0131 15.5314C34.1964 13.5598 32.9994 11.7685 31.4905 10.2595C29.9815 8.75056 28.1902 7.55359 26.2186 6.73695C24.2471 5.92031 22.134 5.5 20 5.5Z" fill="currentColor"/>
</svg>