<?xml version="1.0" standalone="no"?>
<!DOCTYPE svg PUBLIC "-//W3C//DTD SVG 1.1//EN" "http://www.w3.org/Graphics/SVG/1.1/DTD/svg11.dtd" >
<svg xmlns="http://www.w3.org/2000/svg">
<defs>
  <font id="yoko-orbit" horiz-adv-x="300">
    <font-face font-family="yoko-orbit"
      units-per-em="300" ascent="300"
      descent="0" />
    <missing-glyph horiz-adv-x="0" />
    <glyph glyph-name="wind"
      unicode="&#xF101;"
      horiz-adv-x="300" d="M197.5 271.875C192.3225 271.875 188.125 267.677625 188.125 262.5C188.125 257.322375 192.3225 253.125 197.5 253.125C227.7325 253.125 253.125 227.04425 253.125 193.75C253.125 160.45625 227.7325 134.375 197.5 134.375H62.5C57.322375 134.375 53.125 130.1775 53.125 125C53.125 119.8225 57.322375 115.625 62.5 115.625H197.5C239.065 115.625 271.875 151.105 271.875 193.75C271.875 236.394875 239.065 271.875 197.5 271.875zM28.125 200C28.125 205.177625 32.322375 209.375 37.5 209.375L137.5 209.375C142.6775 209.375 146.875 205.177625 146.875 200C146.875 194.822375 142.6775 190.625 137.5 190.625L37.5 190.625C32.322375 190.625 28.125 194.822375 28.125 200zM53.125 62.5C53.125 67.6775 57.322375 71.875 62.5 71.875L262.5 71.875C267.6775 71.875 271.875 67.6775 271.875 62.5C271.875 57.3225 267.6775 53.125 262.5 53.125L62.5 53.125C57.322375 53.125 53.125 57.3225 53.125 62.5z" />
    <glyph glyph-name="watch"
      unicode="&#xF102;"
      horiz-adv-x="300" d="M150 190.625C155.1775 190.625 159.375 186.427625 159.375 181.25V153.88375L181.62875 131.62875C185.29 127.9675 185.29 122.0325 181.62875 118.37125C177.9675 114.71 172.0325 114.71 168.37125 118.37125L143.37125 143.37125C141.6125 145.12875 140.625 147.51375 140.625 150V181.25C140.625 186.427625 144.8225 190.625 150 190.625zM103.125 234.375V250C103.125 268.98475 118.51525 284.375 137.5 284.375H162.5C181.485 284.375 196.875 268.98475 196.875 250V234.375H200C218.985 234.375 234.375 218.98475 234.375 200V159.375H237.5C242.6775 159.375 246.875 155.1775 246.875 150C246.875 144.8225 242.6775 140.625 237.5 140.625H234.375V100C234.375 81.015 218.985 65.625 200 65.625H196.875V50C196.875 31.015 181.485 15.625 162.5 15.625H137.5C118.51525 15.625 103.125 31.015 103.125 50V65.625H100C81.01525 65.625 65.625 81.015 65.625 100V200C65.625 218.98475 81.01525 234.375 100 234.375H103.125zM121.875 250V234.375H178.125V250C178.125 258.6295 171.13 265.625 162.5 265.625H137.5C128.87 265.625 121.875 258.6295 121.875 250zM215.625 200C215.625 208.6295 208.63 215.625 200 215.625H100C91.3705 215.625 84.375 208.6295 84.375 200V100C84.375 91.37 91.3705 84.375 100 84.375H200C208.63 84.375 215.625 91.37 215.625 100V200zM121.875 50C121.875 41.37 128.87 34.375 137.5 34.375H162.5C171.13 34.375 178.125 41.37 178.125 50V65.625H121.875V50z" />
    <glyph glyph-name="watch-2"
      unicode="&#xF103;"
      horiz-adv-x="300" d="M150 190.625C155.1775 190.625 159.375 186.427625 159.375 181.25V153.88375L181.62875 131.62875C185.29 127.9675 185.29 122.0325 181.62875 118.37125C177.9675 114.71 172.0325 114.71 168.37125 118.37125L143.37125 143.37125C141.6125 145.12875 140.625 147.51375 140.625 150V181.25C140.625 186.427625 144.8225 190.625 150 190.625zM103.125 220.16675V237.5C103.125 256.48475 118.51525 271.875 137.5 271.875H162.5C181.485 271.875 196.875 256.48475 196.875 237.5V220.16675C217.0375 206.670125 231.05875 184.713375 233.86 159.375H237.5C242.6775 159.375 246.875 155.1775 246.875 150C246.875 144.8225 242.6775 140.625 237.5 140.625H233.86C231.05875 115.28625 217.0375 93.33 196.875 79.83375V62.5C196.875 43.515 181.485 28.125 162.5 28.125H137.5C118.51525 28.125 103.125 43.515 103.125 62.5V79.83375C80.51275 94.97 65.625 120.74625 65.625 150C65.625 179.253875 80.51275 205.030625 103.125 220.16675zM121.875 237.5V229.573875C130.6725 232.683125 140.13875 234.375 150 234.375C159.86125 234.375 169.3275 232.683125 178.125 229.573875V237.5C178.125 246.1295 171.13 253.125 162.5 253.125H137.5C128.87 253.125 121.875 246.1295 121.875 237.5zM215.625 150C215.625 186.243625 186.24375 215.625 150 215.625C113.756375 215.625 84.375 186.243625 84.375 150C84.375 113.75625 113.756375 84.375 150 84.375C186.24375 84.375 215.625 113.75625 215.625 150zM150 65.625C140.13875 65.625 130.6725 67.31625 121.875 70.42625V62.5C121.875 53.87 128.87 46.875 137.5 46.875H162.5C171.13 46.875 178.125 53.87 178.125 62.5V70.42625C169.3275 67.31625 159.86125 65.625 150 65.625z" />
    <glyph glyph-name="warning"
      unicode="&#xF104;"
      horiz-adv-x="300" d="M150 198.085C155.1775 198.085 159.375 193.88775 159.375 188.71V132.46C159.375 127.2825 155.1775 123.085 150 123.085C144.8225 123.085 140.625 127.2825 140.625 132.46V188.71C140.625 193.88775 144.8225 198.085 150 198.085zM137.5 96.09625C137.5 103 143.09625 108.59625 150 108.59625C156.90375 108.59625 162.5 103 162.5 96.09625C162.5 89.1925 156.90375 83.59625 150 83.59625C143.09625 83.59625 137.5 89.1925 137.5 96.09625zM190.19375 244.98C171.9875 275.324 128.01125 275.323875 109.804375 244.979875L26.0365 105.36625C7.290475 74.12375 29.79575 34.375 66.2315 34.375H233.7675C270.2025 34.375 292.70875 74.12375 273.9625000000001 105.3675L190.19375 244.98zM125.8825 235.333125C136.80625 253.5395 163.1925 253.539625 174.11625 235.333125L257.88375 95.72C269.13125 76.97375 255.62875 53.125 233.7675 53.125H66.2315C44.37 53.125 30.866875 76.97375 42.1145 95.72L125.8825 235.333125z" />
    <glyph glyph-name="volume-up"
      unicode="&#xF105;"
      horiz-adv-x="300" d="M159.375 229.337125V70.6625C159.375 38.26125 118.6495 23.8525 98.273 49.04625L66.882 87.85625C63.915375 91.52375 59.450625 93.655 54.733375 93.655H50C31.01525 93.655 15.625 109.045 15.625 128.03V171.97C15.625 190.9545 31.01525 206.34475 50 206.34475H54.733375C59.450625 206.34475 63.915375 208.475875 66.882 212.143625L98.273125 250.9545C118.649625 276.14725 159.375 261.73875 159.375 229.337125zM140.625 70.6625L140.625 229.337125C140.625 244.065125 122.113375 250.614375 112.851375 239.163125L81.46025 200.352375C74.933875 192.283375 65.111375 187.59475 54.733375 187.59475H50C41.3705 187.59475 34.375 180.59925 34.375 171.97L34.375 128.03C34.375 119.40125 41.370625 112.405 50 112.405H54.733375C65.111375 112.405 74.933875 107.71625 81.46025 99.6475L112.851375 60.8375C122.113375 49.38625 140.625 55.935 140.625 70.6625zM190.625 237.5C190.625 242.677625 194.8225 246.875 200 246.875C247.9025 246.875 284.375 202.09475 284.375 150C284.375 97.905 247.9025 53.125 200 53.125C194.8225 53.125 190.625 57.3225 190.625 62.5C190.625 67.6775 194.8225 71.875 200 71.875C234.9400000000001 71.875 265.625 105.445 265.625 150C265.625 194.555125 234.9400000000001 228.125 200 228.125C194.8225 228.125 190.625 232.322375 190.625 237.5zM187.5 184.375C182.3225 184.375 178.125 180.177625 178.125 175C178.125 169.8225 182.3225 165.625 187.5 165.625C196.13 165.625 203.125 158.63 203.125 150C203.125 141.37 196.13 134.375 187.5 134.375C182.3225 134.375 178.125 130.1775 178.125 125C178.125 119.8225 182.3225 115.625 187.5 115.625C206.485 115.625 221.875 131.015 221.875 150C221.875 168.985 206.485 184.375 187.5 184.375z" />
    <glyph glyph-name="volume-plus"
      unicode="&#xF106;"
      horiz-adv-x="300" d="M171.875 229.337125V70.6625C171.875 38.26125 131.15 23.8525 110.773 49.04625L79.382 87.85625C76.415375 91.52375 71.950625 93.655 67.233375 93.655H62.5C43.51525 93.655 28.125 109.045 28.125 128.03V171.97C28.125 190.9545 43.51525 206.34475 62.5 206.34475H67.233375C71.950625 206.34475 76.415375 208.475875 79.382 212.143625L110.773125 250.9545C131.15 276.14725 171.875 261.73875 171.875 229.337125zM153.125 70.6625L153.125 229.337125C153.125 244.065125 134.61375 250.614375 125.35125 239.163125L93.96025 200.352375C87.433875 192.283375 77.611375 187.59475 67.233375 187.59475H62.5C53.8705 187.59475 46.875 180.59925 46.875 171.97L46.875 128.03C46.875 119.40125 53.870625 112.405 62.5 112.405H67.233375C77.611375 112.405 87.433875 107.71625 93.96025 99.6475L125.35125 60.8375C134.61375 49.38625 153.125 55.935 153.125 70.6625zM184.375 150C184.375 155.1775 188.5725 159.375 193.75 159.375H221.875V187.5C221.875 192.677625 226.0725 196.875 231.25 196.875C236.4275 196.875 240.625 192.677625 240.625 187.5V159.375H268.75C273.9275 159.375 278.125 155.1775 278.125 150C278.125 144.8225 273.9275 140.625 268.75 140.625H240.625V112.5C240.625 107.3225 236.4275 103.125 231.25 103.125C226.0725 103.125 221.875 107.3225 221.875 112.5V140.625H193.75C188.5725 140.625 184.375 144.8225 184.375 150z" />
    <glyph glyph-name="volume-none"
      unicode="&#xF107;"
      horiz-adv-x="300" d="M190.625 70.6625L190.625 229.337125C190.625 244.065125 172.11375 250.614375 162.85125 239.163125L131.46 200.352375C124.933875 192.283375 115.111375 187.59475 104.733375 187.59475H100C91.3705 187.59475 84.375 180.59925 84.375 171.97L84.375 128.03C84.375 119.40125 91.3705 112.405 100 112.405H104.733375C115.111375 112.405 124.933875 107.71625 131.46 99.6475L162.85125 60.8375C172.11375 49.38625 190.625 55.935 190.625 70.6625zM209.375 229.337125L209.375 70.6625C209.375 38.26125 168.65 23.8525 148.2725 49.04625L116.882 87.85625C113.915375 91.52375 109.450625 93.655 104.733375 93.655H100C81.01525 93.655 65.625 109.045 65.625 128.03L65.625 171.97C65.625 190.9545 81.01525 206.34475 100 206.34475H104.733375C109.450625 206.34475 113.915375 208.475875 116.882 212.143625L148.2725 250.9545C168.65 276.14725 209.375 261.73875 209.375 229.337125z" />
    <glyph glyph-name="volume-minus"
      unicode="&#xF108;"
      horiz-adv-x="300" d="M171.875 70.6625V229.337125C171.875 261.73875 131.15 276.14725 110.773125 250.9545L79.382 212.143625C76.415375 208.475875 71.950625 206.34475 67.233375 206.34475H62.5C43.51525 206.34475 28.125 190.9545 28.125 171.97V128.03C28.125 109.045 43.51525 93.655 62.5 93.655H67.233375C71.950625 93.655 76.415375 91.52375 79.382 87.85625L110.773 49.04625C131.15 23.8525 171.875 38.26125 171.875 70.6625zM153.125 229.337125L153.125 70.6625C153.125 55.935 134.61375 49.38625 125.35125 60.8375L93.96025 99.6475C87.433875 107.71625 77.611375 112.405 67.233375 112.405H62.5C53.870625 112.405 46.875 119.40125 46.875 128.03L46.875 171.97C46.875 180.59925 53.8705 187.59475 62.5 187.59475H67.233375C77.611375 187.59475 87.433875 192.283375 93.96025 200.352375L125.35125 239.163125C134.61375 250.614375 153.125 244.065125 153.125 229.337125zM193.75 159.375C188.5725 159.375 184.375 155.1775 184.375 150C184.375 144.8225 188.5725 140.625 193.75 140.625H268.75C273.9275 140.625 278.125 144.8225 278.125 150C278.125 155.1775 273.9275 159.375 268.75 159.375H193.75z" />
    <glyph glyph-name="volume-down"
      unicode="&#xF109;"
      horiz-adv-x="300" d="M184.375 70.6625V229.337125C184.375 261.73875 143.65 276.14725 123.273125 250.9545L91.882 212.143625C88.915375 208.475875 84.450625 206.34475 79.733375 206.34475H75C56.01525 206.34475 40.625 190.9545 40.625 171.97V128.03C40.625 109.045 56.01525 93.655 75 93.655H79.733375C84.450625 93.655 88.915375 91.52375 91.882 87.85625L123.273 49.04625C143.65 23.8525 184.375 38.26125 184.375 70.6625zM165.625 229.337125L165.625 70.6625C165.625 55.935 147.11375 49.38625 137.85125 60.8375L106.46025 99.6475C99.933875 107.71625 90.111375 112.405 79.733375 112.405H75C66.370625 112.405 59.375 119.40125 59.375 128.03L59.375 171.97C59.375 180.59925 66.3705 187.59475 75 187.59475H79.733375C90.111375 187.59475 99.933875 192.283375 106.46025 200.352375L137.85125 239.163125C147.11375 250.614375 165.625 244.065125 165.625 229.337125zM212.5 184.375C207.3225 184.375 203.125 180.177625 203.125 175C203.125 169.8225 207.3225 165.625 212.5 165.625C221.13 165.625 228.125 158.63 228.125 150C228.125 141.37 221.13 134.375 212.5 134.375C207.3225 134.375 203.125 130.1775 203.125 125C203.125 119.8225 207.3225 115.625 212.5 115.625C231.485 115.625 246.875 131.015 246.875 150C246.875 168.985 231.485 184.375 212.5 184.375z" />
    <glyph glyph-name="vertical-space"
      unicode="&#xF10A;"
      horiz-adv-x="300" d="M15.625 162.5C15.625 181.48475 31.01525 196.875 50 196.875H250C268.985 196.875 284.375 181.48475 284.375 162.5V137.5C284.375 118.515 268.985 103.125 250 103.125H50C31.01525 103.125 15.625 118.515 15.625 137.5V162.5zM50 178.125C41.3705 178.125 34.375 171.13 34.375 162.5V137.5C34.375 128.87 41.3705 121.875 50 121.875H250C258.63 121.875 265.625 128.87 265.625 137.5V162.5C265.625 171.13 258.63 178.125 250 178.125H50z" />
    <glyph glyph-name="vertical-space-line"
      unicode="&#xF10B;"
      horiz-adv-x="300" d="M284.375 250C284.375 244.82225 280.1775 240.625 275 240.625L25 240.625C19.822375 240.625 15.625 244.822375 15.625 250C15.625 255.177625 19.822375 259.375 25 259.375H275C280.1775 259.375 284.375 255.177625 284.375 250zM40.625 162.5C40.625 181.48475 56.01525 196.875 75 196.875H225C243.985 196.875 259.375 181.48475 259.375 162.5V137.5C259.375 118.515 243.985 103.125 225 103.125H75C56.01525 103.125 40.625 118.515 40.625 137.5V162.5zM75 178.125C66.3705 178.125 59.375 171.13 59.375 162.5V137.5C59.375 128.87 66.3705 121.875 75 121.875H225C233.63 121.875 240.625 128.87 240.625 137.5V162.5C240.625 171.13 233.63 178.125 225 178.125H75zM275 40.625C280.1775 40.625 284.375 44.8225 284.375 50C284.375 55.1775 280.1775 59.375 275 59.375L25 59.375C19.822375 59.375 15.625 55.1775 15.625 50C15.625 44.8225 19.822375 40.625 25 40.625L275 40.625z" />
    <glyph glyph-name="users"
      unicode="&#xF10C;"
      horiz-adv-x="300" d="M100 259.375C63.756375 259.375 34.375 229.993625 34.375 193.75C34.375 157.50625 63.756375 128.125 100 128.125C136.24375 128.125 165.625 157.50625 165.625 193.75C165.625 229.993625 136.24375 259.375 100 259.375zM53.125 193.75C53.125 219.638375 74.111625 240.625 100 240.625C125.88875 240.625 146.875 219.638375 146.875 193.75C146.875 167.86125 125.88875 146.875 100 146.875C74.111625 146.875 53.125 167.86125 53.125 193.75zM218.75 196.875C196.31375 196.875 178.125 178.686625 178.125 156.25C178.125 133.81375 196.31375 115.625 218.75 115.625C241.18625 115.625 259.375 133.81375 259.375 156.25C259.375 178.686625 241.18625 196.875 218.75 196.875zM196.875 156.25C196.875 168.33125 206.66875 178.125 218.75 178.125C230.83125 178.125 240.625 168.33125 240.625 156.25C240.625 144.16875 230.83125 134.375 218.75 134.375C206.66875 134.375 196.875 144.16875 196.875 156.25zM171.3725 96.875C170.75125 96.875 170.145 96.815 169.5575 96.69875C161.17375 104.56125 149.9 109.375 137.5 109.375H62.5C36.611625 109.375 15.625 88.38875 15.625 62.5V50C15.625 31.015 31.01525 15.625 50 15.625H150C160.675 15.625 170.2125 20.49 176.5175 28.125H255C271.2225000000001 28.125 284.375 41.27625 284.375 57.5C284.375 79.24625 266.7462500000001 96.875 245.0000000000001 96.875H171.3725zM184.375 62.5C184.375 67.97875 183.435 73.2375 181.7075 78.125H245.0000000000001C256.39 78.125 265.625 68.89125 265.625 57.5C265.625 51.6325 260.8675 46.875 255 46.875H184.235C184.3275 47.90375 184.375 48.94625 184.375 50V62.5zM62.5 90.625H137.5C153.0325 90.625 165.625 78.0325 165.625 62.5V50C165.625 41.37 158.63 34.375 150 34.375H50C41.3705 34.375 34.375 41.37 34.375 50V62.5C34.375 78.0325 46.967 90.625 62.5 90.625z" />
    <glyph glyph-name="user"
      unicode="&#xF10D;"
      horiz-adv-x="300" d="M146.875 275C110.631375 275 81.25 245.618625 81.25 209.375C81.25 173.13125 110.631375 143.75 146.875 143.75C183.11875 143.75 212.5 173.13125 212.5 209.375C212.5 245.618625 183.11875 275 146.875 275zM100 209.375C100 235.263375 120.986625 256.25 146.875 256.25C172.76375 256.25 193.75 235.263375 193.75 209.375C193.75 183.486625 172.76375 162.5 146.875 162.5C120.986625 162.5 100 183.486625 100 209.375zM109.375 125C83.486625 125 62.5 104.01375 62.5 78.125V65.625C62.5 46.64 77.89025 31.25 96.875 31.25H196.875C215.86 31.25 231.25 46.64 231.25 65.625V78.125C231.25 104.01375 210.26375 125 184.375 125H109.375zM81.25 78.125C81.25 93.6575 93.842 106.25 109.375 106.25H184.375C199.9075 106.25 212.5 93.6575 212.5 78.125V65.625C212.5 56.995 205.505 50 196.875 50H96.875C88.2455 50 81.25 56.995 81.25 65.625V78.125z" />
    <glyph glyph-name="user-plus"
      unicode="&#xF10E;"
      horiz-adv-x="300" d="M231.25 278.125C231.25 283.302625 227.0525 287.5 221.875 287.5C216.6975 287.5 212.5 283.302625 212.5 278.125V262.5L196.875 262.5C191.6975 262.5 187.5 258.302625 187.5 253.125C187.5 247.947375 191.6975 243.75 196.875 243.75H212.5V228.125C212.5 222.947375 216.6975 218.75 221.875 218.75C227.0525 218.75 231.25 222.947375 231.25 228.125V243.75H246.875C252.0525 243.75 256.25 247.947375 256.25 253.125C256.25 258.302625 252.0525 262.5 246.875 262.5L231.25 262.5V278.125zM37.5 65.625C37.5 91.51375 58.486625 112.5 84.375 112.5H159.375C185.26375 112.5 206.25 91.51375 206.25 65.625V53.125C206.25 34.14 190.86 18.75 171.875 18.75H71.875C52.89025 18.75 37.5 34.14 37.5 53.125V65.625zM84.375 93.75C68.842 93.75 56.25 81.1575 56.25 65.625V53.125C56.25 44.495 63.2455 37.5 71.875 37.5H171.875C180.505 37.5 187.5 44.495 187.5 53.125V65.625C187.5 81.1575 174.9075 93.75 159.375 93.75H84.375zM121.875 262.5C85.631375 262.5 56.25 233.11875 56.25 196.875C56.25 160.63125 85.631375 131.25 121.875 131.25C158.11875 131.25 187.5 160.63125 187.5 196.875C187.5 233.11875 158.11875 262.5 121.875 262.5zM75 196.875C75 222.763375 95.986625 243.75 121.875 243.75C147.76375 243.75 168.75 222.763375 168.75 196.875C168.75 170.98625 147.76375 150 121.875 150C95.986625 150 75 170.98625 75 196.875z" />
    <glyph glyph-name="user-plus-2"
      unicode="&#xF10F;"
      horiz-adv-x="300" d="M134.375 275C98.131375 275 68.75 245.618625 68.75 209.375C68.75 173.13125 98.131375 143.75 134.375 143.75C170.61875 143.75 200 173.13125 200 209.375C200 245.618625 170.61875 275 134.375 275zM87.5 209.375C87.5 235.263375 108.486625 256.25 134.375 256.25C160.26375 256.25 181.25 235.263375 181.25 209.375C181.25 183.486625 160.26375 162.5 134.375 162.5C108.486625 162.5 87.5 183.486625 87.5 209.375zM96.875 106.25C81.342 106.25 68.75 93.6575 68.75 78.125V65.625C68.75 56.995 75.7455 50 84.375 50H134.375C139.5525 50 143.75 45.8025 143.75 40.625C143.75 35.4475 139.5525 31.25 134.375 31.25H84.375C65.39025 31.25 50 46.64 50 65.625V78.125C50 104.01375 70.986625 125 96.875 125H134.375C139.5525 125 143.75 120.8025 143.75 115.625C143.75 110.4475 139.5525 106.25 134.375 106.25H96.875zM218.75 115.625C218.75 120.8025 214.5525 125 209.375 125C204.1975 125 200 120.8025 200 115.625V87.5H171.875C166.6975 87.5 162.5 83.3025 162.5 78.125C162.5 72.9475 166.6975 68.75 171.875 68.75H200V40.625C200 35.4475 204.1975 31.25 209.375 31.25C214.5525 31.25 218.75 35.4475 218.75 40.625V68.75H246.875C252.0525 68.75 256.25 72.9475 256.25 78.125C256.25 83.3025 252.0525 87.5 246.875 87.5H218.75V115.625z" />
    <glyph glyph-name="user-minus"
      unicode="&#xF110;"
      horiz-adv-x="300" d="M256.25 265.625C256.25 260.447375 252.0525 256.25 246.875 256.25L184.375 256.25C179.1975 256.25 175 260.447375 175 265.625C175 270.802625 179.1975 275 184.375 275H246.875C252.0525 275 256.25 270.802625 256.25 265.625zM37.5 65.625C37.5 91.51375 58.486625 112.5 84.375 112.5H159.375C185.26375 112.5 206.25 91.51375 206.25 65.625V53.125C206.25 34.14 190.86 18.75 171.875 18.75H71.875C52.89025 18.75 37.5 34.14 37.5 53.125V65.625zM84.375 93.75C68.842 93.75 56.25 81.1575 56.25 65.625V53.125C56.25 44.495 63.2455 37.5 71.875 37.5H171.875C180.505 37.5 187.5 44.495 187.5 53.125V65.625C187.5 81.1575 174.9075 93.75 159.375 93.75H84.375zM121.875 262.5C85.631375 262.5 56.25 233.118625 56.25 196.875C56.25 160.63125 85.631375 131.25 121.875 131.25C158.11875 131.25 187.5 160.63125 187.5 196.875C187.5 233.118625 158.11875 262.5 121.875 262.5zM75 196.875C75 222.763375 95.986625 243.75 121.875 243.75C147.76375 243.75 168.75 222.763375 168.75 196.875C168.75 170.98625 147.76375 150 121.875 150C95.986625 150 75 170.98625 75 196.875z" />
    <glyph glyph-name="user-minus-2"
      unicode="&#xF111;"
      horiz-adv-x="300" d="M150 259.375C113.756375 259.375 84.375 229.993625 84.375 193.75C84.375 157.50625 113.756375 128.125 150 128.125C186.24375 128.125 215.625 157.50625 215.625 193.75C215.625 229.993625 186.24375 259.375 150 259.375zM103.125 193.75C103.125 219.638375 124.111625 240.625 150 240.625C175.88875 240.625 196.875 219.638375 196.875 193.75C196.875 167.86125 175.88875 146.875 150 146.875C124.111625 146.875 103.125 167.86125 103.125 193.75zM112.5 90.625C96.967 90.625 84.375 78.0325 84.375 62.5V50C84.375 41.37 91.3705 34.375 100 34.375H150C155.1775 34.375 159.375 30.1775 159.375 25C159.375 19.8225 155.1775 15.625 150 15.625H100C81.01525 15.625 65.625 31.015 65.625 50V62.5C65.625 88.38875 86.611625 109.375 112.5 109.375H150C155.1775 109.375 159.375 105.1775 159.375 100C159.375 94.8225 155.1775 90.625 150 90.625H112.5zM271.875 62.5C271.875 57.3225 267.6775 53.125 262.5 53.125H187.5C182.3225 53.125 178.125 57.3225 178.125 62.5C178.125 67.6775 182.3225 71.875 187.5 71.875H262.5C267.6775 71.875 271.875 67.6775 271.875 62.5z" />
    <glyph glyph-name="user-delete"
      unicode="&#xF112;"
      horiz-adv-x="300" d="M239.175 227.30175C242.83625 223.6405 248.7725 223.6405 252.4325 227.30175C256.09375 230.962875 256.09375 236.89875 252.4325 240.56L236.965 256.028L252.4325 271.495875C256.09375 275.157 256.09375 281.092875 252.4325 284.754125C248.77125 288.41525 242.83625 288.41525 239.175 284.754125L223.70625 269.28625L208.23875 284.754125C204.5775 288.4152875 198.64125 288.4152875 194.98125 284.754125C191.32 281.093 191.32 275.157 194.98125 271.495875L210.44875 256.028L194.98 240.559875C191.31875 236.89875 191.31875 230.962875 194.98 227.301625C198.64125 223.6405 204.5775 223.6405 208.23875 227.301625L223.70625 242.76975L239.175 227.30175zM37.5 66.6975C37.5 92.58625 58.486625 113.5725 84.375 113.5725H159.375C185.26375 113.5725 206.25 92.58625 206.25 66.6975V54.1975C206.25 35.2125 190.86 19.8225 171.875 19.8225H71.875C52.89025 19.8225 37.5 35.2125 37.5 54.1975V66.6975zM84.375 94.8225C68.842 94.8225 56.25 82.23 56.25 66.6975V54.1975C56.25 45.5675 63.2455 38.5725 71.875 38.5725H171.875C180.505 38.5725 187.5 45.5675 187.5 54.1975V66.6975C187.5 82.23 174.9075 94.8225 159.375 94.8225H84.375zM121.875 263.572375C85.631375 263.572375 56.25 234.191 56.25 197.947375C56.25 161.70375 85.631375 132.3225 121.875 132.3225C158.11875 132.3225 187.5 161.70375 187.5 197.947375C187.5 234.191 158.11875 263.572375 121.875 263.572375zM75 197.947375C75 223.83575 95.986625 244.822375 121.875 244.822375C147.76375 244.822375 168.75 223.83575 168.75 197.947375C168.75 172.05875 147.76375 151.0725 121.875 151.0725C95.986625 151.0725 75 172.05875 75 197.947375z" />
    <glyph glyph-name="user-delete-2"
      unicode="&#xF113;"
      horiz-adv-x="300" d="M121.875 275C85.631375 275 56.25 245.618625 56.25 209.375C56.25 173.13125 85.631375 143.75 121.875 143.75C158.11875 143.75 187.5 173.13125 187.5 209.375C187.5 245.618625 158.11875 275 121.875 275zM75 209.375C75 235.263375 95.986625 256.25 121.875 256.25C147.76375 256.25 168.75 235.263375 168.75 209.375C168.75 183.486625 147.76375 162.5 121.875 162.5C95.986625 162.5 75 183.486625 75 209.375zM84.375 106.25C68.842 106.25 56.25 93.6575 56.25 78.125V65.625C56.25 56.995 63.2455 50 71.875 50H121.875C127.0525 50 131.25 45.8025 131.25 40.625C131.25 35.4475 127.0525 31.25 121.875 31.25H71.875C52.89025 31.25 37.5 46.64 37.5 65.625V78.125C37.5 104.01375 58.486625 125 84.375 125H121.875C127.0525 125 131.25 120.8025 131.25 115.625C131.25 110.4475 127.0525 106.25 121.875 106.25H84.375zM247.25375 106.40625C250.915 110.0675 250.915 116.00375 247.25375 119.665C243.5925 123.32625 237.6575 123.32625 233.99625 119.665L206.78625 92.45625L179.5775 119.665C175.91625 123.32625 169.98125 123.32625 166.32 119.665C162.65875 116.00375 162.65875 110.0675 166.32 106.40625L193.52875 79.1975L166.31875 51.98875C162.65875 48.3275 162.65875 42.39125 166.31875 38.73C169.98 35.06875 175.91625 35.06875 179.5775 38.73L206.78625 65.93875L233.99625 38.73C237.6575 35.06875 243.5925 35.06875 247.25375 38.73C250.915 42.39125 250.915 48.3275 247.25375 51.98875L220.045 79.1975L247.25375 106.40625z" />
    <glyph glyph-name="user-accept"
      unicode="&#xF114;"
      horiz-adv-x="300" d="M212.125 220.920125C209.40375 220.71675 206.72875 221.709875 204.79875 223.639875L187.12 241.317625C183.45875 244.97875 183.45875 250.914625 187.12 254.575875C190.78125 258.237 196.7175 258.237 200.37875 254.575875L210.3575 244.5975L239.2425 283.695125C242.31875 287.8596 248.18875 288.7414125 252.35375 285.6647500000001C256.5175 282.588125 257.4 276.718 254.3225 272.553625L218.9675 224.69825C217.34625 222.502875 214.8475 221.123375 212.125 220.920125zM37.5 65.6725C37.5 91.56125 58.486625 112.5475 84.375 112.5475H159.375C185.26375 112.5475 206.25 91.56125 206.25 65.6725V53.1725C206.25 34.1875 190.86 18.7975 171.875 18.7975H71.875C52.89025 18.7975 37.5 34.1875 37.5 53.1725V65.6725zM84.375 93.7975C68.842 93.7975 56.25 81.205 56.25 65.6725V53.1725C56.25 44.5425 63.2455 37.5475 71.875 37.5475H171.875C180.505 37.5475 187.5 44.5425 187.5 53.1725V65.6725C187.5 81.205 174.9075 93.7975 159.375 93.7975H84.375zM121.875 262.5475C85.631375 262.5475 56.25 233.16625 56.25 196.9225C56.25 160.67875 85.631375 131.2975 121.875 131.2975C158.11875 131.2975 187.5 160.67875 187.5 196.9225C187.5 233.16625 158.11875 262.5475 121.875 262.5475zM75 196.9225C75 222.810875 95.986625 243.7975 121.875 243.7975C147.76375 243.7975 168.75 222.810875 168.75 196.9225C168.75 171.03375 147.76375 150.0475 121.875 150.0475C95.986625 150.0475 75 171.03375 75 196.9225z" />
    <glyph glyph-name="user-accept-2"
      unicode="&#xF115;"
      horiz-adv-x="300" d="M121.875 275C85.631375 275 56.25 245.618625 56.25 209.375C56.25 173.13125 85.631375 143.75 121.875 143.75C158.11875 143.75 187.5 173.13125 187.5 209.375C187.5 245.618625 158.11875 275 121.875 275zM75 209.375C75 235.263375 95.986625 256.25 121.875 256.25C147.76375 256.25 168.75 235.263375 168.75 209.375C168.75 183.486625 147.76375 162.5 121.875 162.5C95.986625 162.5 75 183.486625 75 209.375zM84.375 106.25C68.842 106.25 56.25 93.6575 56.25 78.125V65.625C56.25 56.995 63.2455 50 71.875 50H121.875C127.0525 50 131.25 45.8025 131.25 40.625C131.25 35.4475 127.0525 31.25 121.875 31.25H71.875C52.89025 31.25 37.5 46.64 37.5 65.625V78.125C37.5 104.01375 58.486625 125 84.375 125H121.875C127.0525 125 131.25 120.8025 131.25 115.625C131.25 110.4475 127.0525 106.25 121.875 106.25H84.375zM248.77 118.59375C252.43125 114.9325 252.43125 108.99625 248.77 105.335L194.66375 51.23C191.00375 47.56875 185.0675 47.56875 181.40625 51.23L157.47875 75.1575C153.8175 78.81875 153.8175 84.755 157.47875 88.415C161.14 92.07625 167.075 92.07625 170.73625 88.415L188.035 71.1175L235.51125 118.59375C239.1725 122.255 245.10875 122.255 248.77 118.59375z" />
    <glyph glyph-name="usb"
      unicode="&#xF116;"
      horiz-adv-x="300" d="M259.375 150H34.375C31.888625 150 29.504 149.0125 27.745875 147.255C25.987625 145.49625 25 143.11125 25 140.625V40.625C25.032375 38.14875 26.0305 35.78375 27.781625 34.0325C29.532875 32.28125 31.898625 31.2825 34.375 31.25H259.375C261.85125 31.2825 264.2175 32.28125 265.96875 34.0325C267.7200000000001 35.78375 268.7175 38.14875 268.75 40.625V140.625C268.75 143.11125 267.7625 145.49625 266.0037500000001 147.255C264.2462500000001 149.0125 261.86125 150 259.375 150zM250 131.25V100H43.75V131.25H250zM43.75 50V81.25H250V50H43.75zM75.74975 168.75C85.761375 168.1525 95.641375 171.26875 103.499375 177.500375C107.23875 181.01125 110.145375 185.3145 112.0055 190.094625C113.865625 194.874625 114.63275 200.01025 114.25 205.12525V227.00025C115.659 224.043125 117.658 221.405625 120.124625 219.250375C127.275 214.20925 135.485 210.873875 144.125 209.500375C147.79 209.051125 151.34625 207.950375 154.625 206.25025C154.79625 205.42575 154.79625 204.574875 154.625 203.7505C154.625 198.0005 153.375 196.000125 146.25 196.000125C138.38125 196.248 130.535 196.957625 122.749875 198.12525C121.516875 198.322875 120.255875 198.258 119.049625 197.935C117.843375 197.611875 116.719125 197.03775 115.75 196.250375C113.765625 194.72575 112.4625 192.479875 112.1245 190.000375L111.249375 182.12525C110.964125 179.693875 111.642 177.247125 113.136875 175.3085C114.631875 173.37 116.8255 172.0925 119.2495 171.75L123.37475 171.125C131.09625 169.77 138.91125 169.0175 146.75 168.875C153.64125 168.19 160.5725 169.72375 166.53125 173.255C172.49 176.784875 177.165 182.1265 179.875 188.500375V179.37525C179.875 176.888875 180.8625 174.50375 182.62125 172.74625C184.37875 170.9875 186.76375 170 189.25 170H220.875C229.8687500000001 169.4975 238.7425 172.24875 245.8750000000001 177.75025C249.285 180.919375 251.95125 184.805125 253.68 189.128C255.41 193.45075 256.15875 198.103125 255.875 202.75025C256.2125 210.438875 253.57125 217.961375 248.5 223.750125L249.2500000000001 224.875125C252.2075 230.172875 253.635 236.188375 253.37375 242.25025C253.6825 246.613375 252.985 250.988875 251.33875 255.041C249.6925 259.093 247.13875 262.71375 243.8750000000001 265.62525C236.7575 271.1445 227.86125 273.858125 218.875 273.250375H188.875C188.58125 271.388125 187.66875 269.679125 186.28375 268.4C184.89875 267.120875 183.12375 266.34625 181.24375 266.201625C179.36375 266.057 177.49125 266.550875 175.92625 267.603125C174.3625 268.655375 173.19875 270.20475 172.625 272.000375L168.5 272.62525C161.09625 273.784625 153.61875 274.41125 146.125 274.5001250000001C139.67125 275.222 133.1475 274.04575 127.3525 271.115C121.557 268.184125 116.7425 263.6265 113.49925 258.000375V264.50025C113.49925 266.986625 112.511625 269.37125 110.7535 271.1295C108.99525 272.887625 106.610625 273.87525 104.12425 273.87525H94.9995C92.523125 273.842875 90.157375 272.84475 88.40625 271.093625C86.655 269.342375 85.656875 266.976625 85.6245 264.50025V205.000125C85.85325 202.557 85.187375 200.114 83.75 198.12525C81.08525 196.399125 77.905 195.648125 74.749625 196.000125C66.249625 196.000125 64.74975 198.875125 64.74975 205.000125V264.50025C64.717375 266.976625 63.71925 269.342375 61.968 271.093625C60.216875 272.84475 57.851125 273.842875 55.37475 273.87525H46.124875C43.6485 273.842875 41.28275 272.84475 39.5315 271.093625C37.780375 269.342375 36.78225 266.976625 36.749875 264.50025V205.250375C36.38875 200.170375 37.12825 195.072125 38.918875 190.304375C40.7095 185.536625 43.508375 181.2115 47.12425 177.625125C55.221625 171.19375 65.434375 168.0275 75.74975 168.75zM207.625 246.625375H218.75C220.69625 246.855875 222.66625 246.462 224.375 245.500375C224.715 244.231 224.715 242.89475 224.375 241.625375C224.56 239.935875 224.21 238.230625 223.375 236.75025C221.995 236.16275 220.49625 235.906 218.99875 236.00025H206.49875L207.625 246.625375zM207.625 209.125375H220.125C222.7025 209.18175 225.235 208.439375 227.3750000000001 207.00025C227.67375 205.9375 227.67375 204.813125 227.3750000000001 203.7505C227.57875 201.993625 227.275 200.215 226.5 198.625375C226.5 198.625375 224.625 197.25025 220.125 197.25025H207.625V209.125375zM147 248.12525C151.25 248.12525 158.75 247.37525 169.5 246.12525C171.98875 245.80075 174.50625 246.474875 176.5 248.000125C178.18625 249.455 179.3325 251.4375 179.75 253.625375V218.875375C178.4325 221.856875 176.5175 224.536875 174.125 226.750375C167.60375 231.620875 160.02125 234.87625 152 236.250125C147.49375 237.111125 143.09375 238.45225 138.875 240.25025C138.6 241.358375 138.6 242.517 138.875 243.625125C138.875 245.625125 138.875 248.000125 147.5 248.000125L147 248.12525z" />
    <glyph glyph-name="usb-3"
      unicode="&#xF117;"
      horiz-adv-x="300" d="M209.63875 214.24175C213.3 217.902875 213.3 223.838875 209.63875 227.5C205.9775 231.161125 200.04125 231.161125 196.38 227.5L187.54125 218.661125C183.88 215 183.88 209.064125 187.54125 205.402875C191.2025 201.74175 197.13875 201.74175 200.8 205.402875L209.63875 214.24175zM228.38875 208.75C232.05 205.088875 232.05 199.152875 228.38875 195.49175L219.55 186.652875C215.88875 182.99175 209.9525 182.99175 206.29125 186.652875C202.63 190.314125 202.63 196.25 206.29125 199.911125L215.13 208.75C218.79125 212.411125 224.7275 212.411125 228.38875 208.75zM131.46125 117.31375C135.1225 120.975 135.1225 126.91 131.46125 130.57125C127.8 134.2325 121.86425 134.2325 118.203125 130.57125L90.49175 102.86C86.830625 99.19875 86.830625 93.26375 90.49175 89.6025C94.152875 85.94125 100.088875 85.94125 103.75 89.6025L131.46125 117.31375zM201.33625 269.129125C204.9975 272.79025 210.93375 272.79025 214.595 269.129125L270.0175000000001 213.706375C273.6787500000001 210.04525 273.6787500000001 204.109375 270.0175000000001 200.448125L219.34 149.77125C226.015 134.84 223.225 116.70625 210.97125 104.45375L144.32 37.8025C128.455 21.9375 102.733 21.9375 86.867875 37.8025L38.691 85.97875C22.825875 101.84375 22.825875 127.56625 38.690875 143.43125L105.34225 210.082875C117.595375 222.336125 135.72875 225.125625 150.65875 218.451625L201.33625 269.129125zM207.965 249.24175L165.80125 207.07725L207.965 164.9125L250.13 207.07725L207.965 249.24175zM149.53625 196.824625C140.99375 205.367375 127.14375 205.367375 118.6005 196.824625L51.949125 130.17375C43.4065 121.63125 43.4065 107.78 51.94925 99.2375L100.126125 51.06C108.668875 42.5175 122.519375 42.5175 131.0625 51.06L197.71375 117.71125C206.25625 126.255 206.25625 140.105 197.71375 148.6475L149.53625 196.824625z" />
    <glyph glyph-name="usb-2"
      unicode="&#xF118;"
      horiz-adv-x="300" d="M209.63875 227.5C213.3 223.838875 213.3 217.902875 209.63875 214.24175L200.8 205.402875C197.13875 201.74175 191.2025 201.74175 187.5425 205.402875C183.88125 209.064125 183.88125 215 187.5425 218.661125L196.38125 227.5C200.0425 231.161125 205.9775 231.161125 209.63875 227.5zM228.38875 195.49175C232.05 199.152875 232.05 205.088875 228.38875 208.75C224.7275 212.411125 218.7925 212.411125 215.13125 208.75L206.2925 199.911125C202.63125 196.25 202.63125 190.314125 206.2925 186.652875C209.9525 182.99175 215.88875 182.99175 219.55 186.652875L228.38875 195.49175zM214.595 269.129125C210.93375 272.79025 204.9975 272.79025 201.33625 269.129125L150.65875 218.451625C135.72875 225.125625 117.59525 222.336125 105.342 210.082875L62.77925 167.52C33.6105 138.35125 33.6105 91.06 62.77925 61.89125C91.948 32.7225 139.24 32.7225 168.40875 61.89125L210.97125 104.45375C223.225 116.70625 226.01375 134.84 219.34 149.77125L270.0175000000001 200.448125C273.6787500000001 204.109375 273.6787500000001 210.04525 270.0175000000001 213.706375L214.595 269.129125zM165.80125 207.07725L207.965 249.24175L250.13 207.07725L207.965 164.9125L165.80125 207.07725zM118.60025 196.824625C127.1425 205.367375 140.99375 205.367375 149.53625 196.824625L197.71375 148.6475C206.25625 140.105 206.25625 126.255 197.71375 117.71125L155.15 75.14875C133.30375 53.3025 97.884 53.3025 76.0375 75.14875C54.191125 96.995 54.191125 132.415 76.0375 154.2625L118.60025 196.824625z" />
    <glyph glyph-name="upload"
      unicode="&#xF119;"
      horiz-adv-x="300" d="M94.129125 205.87125L140.625 252.367125L140.625 100C140.625 94.8225 144.8225 90.625 150 90.625C155.1775 90.625 159.375 94.8225 159.375 100L159.375 252.367125L205.87125 205.87125C209.5325 202.210125 215.4675 202.210125 219.12875 205.87125C222.79 209.532375 222.79 215.468375 219.12875 219.1295L165.4675 272.790625C156.925 281.333375 143.075 281.333375 134.5325 272.790625L80.870875 219.1295C77.20975 215.468375 77.20975 209.532375 80.870875 205.87125C84.532 202.210125 90.468 202.210125 94.129125 205.87125zM46.875 137.5C46.875 142.6775 42.677625 146.875 37.5 146.875C32.322375 146.875 28.125 142.6775 28.125 137.5V75C28.125 49.11125 49.111625 28.125 75 28.125H225C250.88875 28.125 271.875 49.11125 271.875 75V137.5C271.875 142.6775 267.6775 146.875 262.5 146.875C257.3225 146.875 253.125 142.6775 253.125 137.5V75C253.125 59.4675 240.5325 46.875 225 46.875H75C59.467 46.875 46.875 59.4675 46.875 75V137.5z" />
    <glyph glyph-name="underline"
      unicode="&#xF11A;"
      horiz-adv-x="300" d="M84.374625 262.5C84.374625 267.677625 80.177375 271.875 74.999625 271.875C69.822 271.875 65.624625 267.677625 65.624625 262.5V143.75C65.624625 100.6025 100.602375 65.625 143.75 65.625C186.8975 65.625 221.875 100.6025 221.875 143.75V262.5C221.875 267.677625 217.6775 271.875 212.5 271.875C207.3225 271.875 203.125 267.677625 203.125 262.5V143.75C203.125 110.9575 176.54125 84.375 143.75 84.375C110.95775 84.375 84.374625 110.9575 84.374625 143.75V262.5zM67.49775 43.115C62.32 43.115 58.123125 38.91625 58.12375 33.73875C58.124375 28.56125 62.32225 24.365 67.499875 24.365L232.5000000000001 24.385C237.6775 24.385 241.8750000000001 28.5825 241.8737500000001 33.76C241.8737500000001 38.93875 237.675 43.135 232.4975 43.135L67.49775 43.115z" />
    <glyph glyph-name="umbrella"
      unicode="&#xF11B;"
      horiz-adv-x="300" d="M159.375 275C159.375 280.177625 155.1775 284.375 150 284.375C144.8225 284.375 140.625 280.177625 140.625 275V271.553C70.785625 266.74 15.625 208.56175 15.625 137.5C15.625 132.3225 19.822375 128.125 25 128.125C30.177625 128.125 34.375 132.3225 34.375 137.5C34.375 149.58125 44.16875 159.375 56.25 159.375C68.33125 159.375 78.125 149.58125 78.125 137.5C78.125 132.3225 82.322375 128.125 87.5 128.125C92.677625 128.125 96.875 132.3225 96.875 137.5C96.875 149.58125 106.66875 159.375 118.75 159.375C130.83125 159.375 140.625 149.58125 140.625 137.5V40C140.625 37.93625 139.92375 36.33875 139.13625 35.395C138.36625 34.47125 137.7475 34.375 137.5 34.375C137.2525 34.375 136.63375 34.47125 135.86375 35.395C135.07625 36.33875 134.375 37.93625 134.375 40C134.375 45.1775 130.1775 49.375 125 49.375C119.822375 49.375 115.625 45.1775 115.625 40C115.625 28.21125 123.890875 15.625 137.5 15.625C151.10875 15.625 159.375 28.21125 159.375 40V137.5C159.375 149.58125 169.16875 159.375 181.25 159.375C193.33125 159.375 203.125 149.58125 203.125 137.5C203.125 132.3225 207.3225 128.125 212.5 128.125C217.6775 128.125 221.875 132.3225 221.875 137.5C221.875 149.58125 231.66875 159.375 243.75 159.375C255.83125 159.375 265.625 149.58125 265.625 137.5C265.625 132.3225 269.8225 128.125 275 128.125C280.1775 128.125 284.375 132.3225 284.375 137.5C284.375 208.56175 229.215 266.74 159.375 271.553V275zM150 253.125C200.73375 253.125 243.835 220.450375 259.40875 174.9975C254.59 177.012 249.3 178.125 243.75 178.125C231.1850000000001 178.125 219.9525 172.42 212.5 163.46C205.0475 172.42 193.815 178.125 181.25 178.125C168.685 178.125 157.4525 172.42 150 163.46C142.5475 172.42 131.315 178.125 118.75 178.125C106.18475 178.125 94.951875 172.42 87.5 163.46C80.048125 172.42 68.81525 178.125 56.25 178.125C50.7 178.125 45.409875 177.012 40.59075 174.9975C56.165 220.450375 99.26675 253.125 150 253.125z" />
    <glyph glyph-name="umbrella-2"
      unicode="&#xF11C;"
      horiz-adv-x="300" d="M159.375 275C159.375 280.177625 155.1775 284.375 150 284.375C144.8225 284.375 140.625 280.177625 140.625 275V271.553C70.785625 266.74 15.625 208.56175 15.625 137.5C15.625 132.3225 19.822375 128.125 25 128.125C29.723125 128.125 33.6305 131.6175 34.280125 136.16125C35.0525 136.8625 36.66225 137.94125 39.52675 139.205C45.36425 141.78 54.28675 144.21625 65.745125 146.3075C86.16725 150.03375 112.983875 152.3725 140.625 153.06875V41.17625C140.625 38.60875 139.81125 36.6225 138.92 35.47C138.4875 34.90875 138.1 34.62375 137.86375 34.495C137.65125 34.37875 137.545 34.375 137.5 34.375C137.455 34.375 137.34875 34.37875 137.13625 34.495C136.9 34.62375 136.5125 34.90875 136.08 35.47C135.18875 36.6225 134.375 38.60875 134.375 41.17625C134.375 46.35375 130.1775 50.55125 125 50.55125C119.822375 50.55125 115.625 46.35375 115.625 41.17625C115.625 29.45625 123.314375 15.625 137.5 15.625C151.68625 15.625 159.375 29.45625 159.375 41.17625V153.2875C187.095 153.23125 213.935 151.475 234.32375 147.91125C245.74 145.91625 254.525 143.45375 260.21875 140.735C264.31625 138.78 265.39625 137.4275 265.6350000000001 137.0575C265.8662500000001 132.085 269.97125 128.125 275 128.125C280.1775 128.125 284.375 132.3225 284.375 137.5C284.375 208.56175 229.215 266.74 159.375 271.553V275zM150 253.125C206.26125 253.125 253.13875 212.941125 263.49375 159.70875C256.2175 162.50125 247.3037500000001 164.67625 237.55125 166.38125C213.33125 170.615 181.45125 172.355 149.8925 171.9925C118.315125 171.62875 86.50325 169.15375 62.379875 164.7525C52.442625 162.94 43.44825 160.7375 36.1985 158.06625C45.901 212.112375 93.161 253.125 150 253.125z" />
    <glyph glyph-name="tune"
      unicode="&#xF11D;"
      horiz-adv-x="300" d="M212.5 290.625C175.9825 290.625 145.825 263.390875 141.23125 228.125L25 228.125C19.822375 228.125 15.625 223.927625 15.625 218.75C15.625 213.572375 19.822375 209.375 25 209.375L141.23125 209.375C145.825 174.10875 175.9825 146.875 212.5 146.875C252.195 146.875 284.375 179.0545 284.375 218.75C284.375 258.4455 252.195 290.625 212.5 290.625zM159.375 218.75C159.375 248.090125 183.16 271.875 212.5 271.875C241.84 271.875 265.625 248.090125 265.625 218.75C265.625 189.409875 241.84 165.625 212.5 165.625C183.16 165.625 159.375 189.409875 159.375 218.75zM158.76875 96.875C154.175 132.14125 124.018125 159.375 87.5 159.375C47.8045 159.375 15.625 127.195 15.625 87.5C15.625 47.805 47.8045 15.625 87.5 15.625C124.018125 15.625 154.175 42.85875 158.76875 78.125H275C280.1775 78.125 284.375 82.3225 284.375 87.5C284.375 92.6775 280.1775 96.875 275 96.875L158.76875 96.875zM34.375 87.5C34.375 116.84 58.159875 140.625 87.5 140.625C116.840125 140.625 140.625 116.84 140.625 87.5C140.625 58.16 116.840125 34.375 87.5 34.375C58.159875 34.375 34.375 58.16 34.375 87.5z" />
    <glyph glyph-name="tune-rectangle"
      unicode="&#xF11E;"
      horiz-adv-x="300" d="M187.5 146.875C164.8225 146.875 145.90625 162.97875 141.5625 184.375H87.5C82.322375 184.375 78.125 188.572375 78.125 193.75C78.125 198.927625 82.322375 203.125 87.5 203.125H141.5625C145.90625 224.521 164.8225 240.625 187.5 240.625C213.38875 240.625 234.375 219.638375 234.375 193.75C234.375 167.86125 213.38875 146.875 187.5 146.875zM187.5 221.875C171.9675 221.875 159.375 209.283 159.375 193.75C159.375 178.217 171.9675 165.625 187.5 165.625C203.0325 165.625 215.625 178.217 215.625 193.75C215.625 209.283 203.0325 221.875 187.5 221.875zM158.4375 115.625C154.09375 137.02125 135.1775 153.125 112.5 153.125C86.611625 153.125 65.625 132.13875 65.625 106.25C65.625 80.36125 86.611625 59.375 112.5 59.375C135.1775 59.375 154.09375 75.47875 158.4375 96.875L212.5 96.875C217.6775 96.875 221.875 101.0725 221.875 106.25C221.875 111.4275 217.6775 115.625 212.5 115.625L158.4375 115.625zM84.375 106.25C84.375 121.7825 96.967 134.375 112.5 134.375C128.0325 134.375 140.625 121.7825 140.625 106.25C140.625 90.7175 128.0325 78.125 112.5 78.125C96.967 78.125 84.375 90.7175 84.375 106.25zM28.125 225C28.125 250.888375 49.111625 271.875 75 271.875H225C250.88875 271.875 271.875 250.888375 271.875 225V75C271.875 49.11125 250.88875 28.125 225 28.125H75C49.111625 28.125 28.125 49.11125 28.125 75V225zM75 253.125C59.467 253.125 46.875 240.533 46.875 225V75C46.875 59.4675 59.467 46.875 75 46.875H225C240.5325 46.875 253.125 59.4675 253.125 75V225C253.125 240.533 240.5325 253.125 225 253.125H75z" />
    <glyph glyph-name="triangle"
      unicode="&#xF11F;"
      horiz-adv-x="300" d="M120.251 242.326625C133.49125 265.19575 166.50875 265.195625 179.74875 242.3265L273.8875000000001 79.7225C287.1550000000001 56.80625 270.61875 28.125 244.13875 28.125H55.86125C29.381 28.125 12.844625 56.80625 26.112125 79.7225L120.251 242.326625zM163.5225 232.932125C157.50375 243.32725 142.49625 243.32725 136.4775 232.932125L42.338875 70.32875C36.30825 59.9125 43.82475 46.875 55.86125 46.875H244.13875C256.175 46.875 263.6912500000001 59.9125 257.66125 70.32875L163.5225 232.932125z" />
    <glyph glyph-name="trash"
      unicode="&#xF120;"
      horiz-adv-x="300" d="M184.235 253.125H228.125C245.38375 253.125 259.375 239.133875 259.375 221.875C259.375 206.541625 248.33125 193.787625 233.765 191.132625L223.50875 47.55125C222.22375 29.5625 207.25625 15.625 189.22125 15.625H110.77725C92.74275 15.625 77.7745 29.5625 76.489625 47.55125L66.23375 191.132875C51.6675 193.7885 40.625 206.54225 40.625 221.875C40.625 239.133875 54.616125 253.125 71.875 253.125H115.765125C117.344 270.645375 132.06875 284.375 150 284.375C167.93125 284.375 182.65625 270.645375 184.235 253.125zM134.6875 253.125H165.3125C163.865 260.257 157.55875 265.625 150 265.625C142.44125 265.625 136.135 260.257 134.6875 253.125zM85.06775 190.625L95.192 48.88625C95.776 40.71 102.57975 34.375 110.77725 34.375H189.22125C197.41875 34.375 204.2225 40.71 204.80625 48.88625L214.93125 190.625H85.06775zM240.625 221.875C240.625 228.7785 235.02875 234.375 228.125 234.375H71.875C64.9715 234.375 59.375 228.7785 59.375 221.875C59.375 214.9715 64.9715 209.375 71.875 209.375H228.125C235.02875 209.375 240.625 214.9715 240.625 221.875z" />
    <glyph glyph-name="trash-3"
      unicode="&#xF121;"
      horiz-adv-x="300" d="M159.375 150C159.375 155.1775 155.1775 159.375 150 159.375C144.8225 159.375 140.625 155.1775 140.625 150V75C140.625 69.8225 144.8225 65.625 150 65.625C155.1775 65.625 159.375 69.8225 159.375 75V150zM187.5 159.375C192.6775 159.375 196.875 155.1775 196.875 150V75C196.875 69.8225 192.6775 65.625 187.5 65.625C182.3225 65.625 178.125 69.8225 178.125 75V150C178.125 155.1775 182.3225 159.375 187.5 159.375zM121.875 150C121.875 155.1775 117.677625 159.375 112.5 159.375C107.322375 159.375 103.125 155.1775 103.125 150V75C103.125 69.8225 107.322375 65.625 112.5 65.625C117.677625 65.625 121.875 69.8225 121.875 75V150zM209.375 253.125H196.735C195.15625 270.645375 180.43125 284.375 162.5 284.375H137.5C119.568625 284.375 104.844 270.645375 103.265125 253.125H90.625C73.366125 253.125 59.375 239.133875 59.375 221.875C59.375 212.892375 63.164875 204.795 69.232875 199.094625C63.135875 192.8915 59.375 184.385 59.375 175V50C59.375 31.015 74.76525 15.625 93.75 15.625H206.25C225.235 15.625 240.625 31.015 240.625 50V175C240.625 184.385 236.86375 192.8915 230.7675 199.094625C236.835 204.795 240.625 212.892375 240.625 221.875C240.625 239.133875 226.63375 253.125 209.375 253.125zM177.8125 253.125H122.1875C123.63525 260.257 129.94125 265.625 137.5 265.625H162.5C170.05875 265.625 176.365 260.257 177.8125 253.125zM206.25 190.625C214.88 190.625 221.875 183.6295 221.875 175V50C221.875 41.37 214.88 34.375 206.25 34.375H93.75C85.1205 34.375 78.125 41.37 78.125 50V175C78.125 183.6295 85.1205 190.625 93.75 190.625H206.25zM209.375 209.375H90.625C83.7215 209.375 78.125 214.971375 78.125 221.875C78.125 228.7785 83.7215 234.375 90.625 234.375H209.375C216.27875 234.375 221.875 228.7785 221.875 221.875C221.875 214.9715 216.27875 209.375 209.375 209.375z" />
    <glyph glyph-name="trash-2"
      unicode="&#xF122;"
      horiz-adv-x="300" d="M159.375 137.5C159.375 142.6775 155.1775 146.875 150 146.875C144.8225 146.875 140.625 142.6775 140.625 137.5V87.5C140.625 82.3225 144.8225 78.125 150 78.125C155.1775 78.125 159.375 82.3225 159.375 87.5V137.5zM195.075 146.78125C200.20125 146.04875 203.7625 141.3 203.03 136.17375L196.78 92.42375C196.04875 87.29875 191.3 83.7375 186.17375 84.46875C181.04875 85.20125 177.48625 89.95 178.21875 95.07625L184.46875 138.82625C185.20125 143.95125 189.95 147.5125 195.075 146.78125zM115.5305 138.82625C114.79825 143.95125 110.0495 147.5125 104.923875 146.78125C99.79825 146.04875 96.236625 141.3 96.968875 136.17375L103.218875 92.42375C103.951125 87.29875 108.699875 83.7375 113.8255 84.46875C118.951125 85.20125 122.512625 89.95 121.7805 95.07625L115.5305 138.82625zM228.125 253.125H184.235C182.65625 270.645375 167.93125 284.375 150 284.375C132.06875 284.375 117.344 270.645375 115.765125 253.125H71.875C54.616125 253.125 40.625 239.133875 40.625 221.875C40.625 211.542125 45.64 202.380625 53.368625 196.6915L65.830875 47.145C67.3155 29.32875 82.209125 15.625 100.087125 15.625H199.91375C217.79125 15.625 232.685 29.32875 234.17 47.145L246.6325 196.69225C254.36 202.381375 259.375 211.542625 259.375 221.875C259.375 239.133875 245.38375 253.125 228.125 253.125zM150 265.625C157.55875 265.625 163.865 260.257 165.3125 253.125H134.6875C136.135 260.257 142.44125 265.625 150 265.625zM227.31125 190.625L215.485 48.7025C214.81 40.60375 208.04 34.375 199.91375 34.375H100.087125C91.96075 34.375 85.191 40.60375 84.516125 48.7025L72.68925 190.625H227.31125zM228.125 209.375H71.875C64.9715 209.375 59.375 214.9715 59.375 221.875C59.375 228.7785 64.9715 234.375 71.875 234.375H228.125C235.02875 234.375 240.625 228.7785 240.625 221.875C240.625 214.9715 235.02875 209.375 228.125 209.375z" />
    <glyph glyph-name="timer"
      unicode="&#xF123;"
      horiz-adv-x="300" d="M131.25 240.625C91.5545 240.625 59.375 208.4455 59.375 168.75C59.375 163.5725 63.572375 159.375 68.75 159.375C73.927625 159.375 78.125 163.5725 78.125 168.75C78.125 198.090125 101.909875 221.875 131.25 221.875C136.4275 221.875 140.625 226.072375 140.625 231.25C140.625 236.427625 136.4275 240.625 131.25 240.625zM128.125 150C128.125 162.08125 137.91875 171.875 150 171.875C152.57875 171.875 155.05375 171.42875 157.35125 170.60875L205.87125 219.12925C209.5325 222.790375 215.4675 222.790375 219.12875 219.12925C222.79 215.468125 222.79 209.532125 219.12875 205.871L170.60875 157.35125C171.42875 155.05375 171.875 152.57875 171.875 150C171.875 137.91875 162.08125 128.125 150 128.125C137.91875 128.125 128.125 137.91875 128.125 150zM15.625 150C15.625 224.21325 75.78675 284.375 150 284.375C224.21375 284.375 284.375 224.21325 284.375 150C284.375 75.78625 224.21375 15.625 150 15.625C75.78675 15.625 15.625 75.78625 15.625 150zM150 265.625C86.142125 265.625 34.375 213.857875 34.375 150C34.375 86.1425 86.142125 34.375 150 34.375C213.8575 34.375 265.625 86.1425 265.625 150C265.625 213.857875 213.8575 265.625 150 265.625zM249.62125 281.629125C253.2825 285.29025 259.2175000000001 285.29025 262.8787500000001 281.629125L287.8787500000001 256.629125C291.54 252.968 291.54 247.032 287.8787500000001 243.370875C284.2175000000001 239.70975 278.2825 239.70975 274.62125 243.370875L249.62125 268.370875C245.96 272.032 245.96 277.968 249.62125 281.629125z" />
    <glyph glyph-name="timer-warning"
      unicode="&#xF124;"
      horiz-adv-x="300" d="M159.375 200C159.375 205.177625 155.1775 209.375 150 209.375C144.8225 209.375 140.625 205.177625 140.625 200V137.5C140.625 132.3225 144.8225 128.125 150 128.125C155.1775 128.125 159.375 132.3225 159.375 137.5V200zM137.5 100C137.5 106.90375 143.09625 112.5 150 112.5C156.90375 112.5 162.5 106.90375 162.5 100C162.5 93.09625 156.90375 87.5 150 87.5C143.09625 87.5 137.5 93.09625 137.5 100zM15.625 150C15.625 224.21325 75.78675 284.375 150 284.375C224.21375 284.375 284.375 224.21325 284.375 150C284.375 75.78625 224.21375 15.625 150 15.625C75.78675 15.625 15.625 75.78625 15.625 150zM150 265.625C86.142125 265.625 34.375 213.857875 34.375 150C34.375 86.1425 86.142125 34.375 150 34.375C213.8575 34.375 265.625 86.1425 265.625 150C265.625 213.857875 213.8575 265.625 150 265.625zM249.62125 281.629125C253.2825 285.29025 259.2175000000001 285.29025 262.8787500000001 281.629125L287.8787500000001 256.629125C291.54 252.968 291.54 247.032 287.8787500000001 243.370875C284.2175000000001 239.70975 278.2825 239.70975 274.62125 243.370875L249.62125 268.370875C245.96 272.032 245.96 277.968 249.62125 281.629125z" />
    <glyph glyph-name="timer-plus"
      unicode="&#xF125;"
      horiz-adv-x="300" d="M150 265.625C86.142125 265.625 34.375 213.857875 34.375 150C34.375 144.18 34.80425 138.46625 35.631375 132.8875C36.39075 127.765 32.85425 122.9975 27.732625 122.23875C22.610875 121.47875 17.843375 125.015 17.084125 130.1375C16.1225 136.62375 15.625 143.25625 15.625 150C15.625 224.21325 75.78675 284.375 150 284.375C224.21375 284.375 284.375 224.21325 284.375 150C284.375 75.78625 224.21375 15.625 150 15.625C143.25625 15.625 136.62375 16.1225 130.1375 17.08375C125.015 17.84375 121.479125 22.61125 122.238375 27.7325C122.99775 32.85375 127.765 36.39125 132.8875 35.63125C138.46625 34.80375 144.18 34.375 150 34.375C213.8575 34.375 265.625 86.1425 265.625 150C265.625 213.857875 213.8575 265.625 150 265.625zM249.62125 281.629125C253.2825 285.29025 259.2175000000001 285.29025 262.8787500000001 281.629125L287.8787500000001 256.629125C291.54 252.968 291.54 247.032 287.8787500000001 243.370875C284.2175000000001 239.70975 278.2825 239.70975 274.62125 243.370875L249.62125 268.370875C245.96 272.032 245.96 277.968 249.62125 281.629125zM131.25 240.625C91.5545 240.625 59.375 208.4455 59.375 168.75C59.375 163.5725 63.572375 159.375 68.75 159.375C73.927625 159.375 78.125 163.5725 78.125 168.75C78.125 198.090125 101.909875 221.875 131.25 221.875C136.4275 221.875 140.625 226.072375 140.625 231.25C140.625 236.427625 136.4275 240.625 131.25 240.625zM128.125 150C128.125 162.08125 137.91875 171.875 150 171.875C152.57875 171.875 155.05375 171.42875 157.35125 170.60875L205.87125 219.12925C209.5325 222.790375 215.4675 222.790375 219.12875 219.12925C222.79 215.468125 222.79 209.532125 219.12875 205.871L170.60875 157.35125C171.42875 155.05375 171.875 152.57875 171.875 150C171.875 137.91875 162.08125 128.125 150 128.125C137.91875 128.125 128.125 137.91875 128.125 150zM32.290625 80.55625C32.290625 85.73375 36.488 89.93125 41.665625 89.93125H69.790625V118.05625C69.790625 123.23375 73.988 127.43125 79.165625 127.43125C84.343375 127.43125 88.540625 123.23375 88.540625 118.05625V89.93125H116.665625C121.843375 89.93125 126.04125 85.73375 126.04125 80.55625C126.04125 75.3775 121.843375 71.18125 116.665625 71.18125H88.540625V43.05625C88.540625 37.8775 84.343375 33.68125 79.165625 33.68125C73.988 33.68125 69.790625 37.8775 69.790625 43.05625V71.18125H41.665625C36.488 71.18125 32.290625 75.3775 32.290625 80.55625z" />
    <glyph glyph-name="timer-minus"
      unicode="&#xF126;"
      horiz-adv-x="300" d="M34.375 150C34.375 213.857875 86.142125 265.625 150 265.625C213.8575 265.625 265.625 213.857875 265.625 150C265.625 86.1425 213.8575 34.375 150 34.375C144.18 34.375 138.46625 34.80375 132.8875 35.63125C127.765 36.39125 122.99775 32.85375 122.238375 27.7325C121.479125 22.61125 125.015 17.84375 130.1375 17.08375C136.62375 16.1225 143.25625 15.625 150 15.625C224.21375 15.625 284.375 75.78625 284.375 150C284.375 224.21325 224.21375 284.375 150 284.375C75.78675 284.375 15.625 224.21325 15.625 150C15.625 143.25625 16.1225 136.62375 17.084125 130.1375C17.843375 125.015 22.610875 121.47875 27.732625 122.23875C32.85425 122.9975 36.39075 127.765 35.631375 132.8875C34.80425 138.46625 34.375 144.18 34.375 150zM262.8787500000001 281.629125C259.2175000000001 285.29025 253.2825 285.29025 249.62125 281.629125C245.96 277.968 245.96 272.032 249.62125 268.370875L274.62125 243.370875C278.2825 239.70975 284.2175000000001 239.70975 287.8787500000001 243.370875C291.54 247.032 291.54 252.968 287.8787500000001 256.629125L262.8787500000001 281.629125zM59.375 168.75C59.375 208.4455 91.5545 240.625 131.25 240.625C136.4275 240.625 140.625 236.427625 140.625 231.25C140.625 226.072375 136.4275 221.875 131.25 221.875C101.909875 221.875 78.125 198.090125 78.125 168.75C78.125 163.5725 73.927625 159.375 68.75 159.375C63.572375 159.375 59.375 163.5725 59.375 168.75zM150 171.875C137.91875 171.875 128.125 162.08125 128.125 150C128.125 137.91875 137.91875 128.125 150 128.125C162.08125 128.125 171.875 137.91875 171.875 150C171.875 152.57875 171.42875 155.05375 170.60875 157.35125L219.12875 205.871C222.79 209.532125 222.79 215.468125 219.12875 219.12925C215.4675 222.790375 209.5325 222.790375 205.87125 219.12925L157.35125 170.60875C155.05375 171.42875 152.57875 171.875 150 171.875zM41.665625 89.93125C36.488 89.93125 32.290625 85.73375 32.290625 80.55625C32.290625 75.3775 36.488 71.18125 41.665625 71.18125H116.665625C121.843375 71.18125 126.04125 75.3775 126.04125 80.55625C126.04125 85.73375 121.843375 89.93125 116.665625 89.93125H41.665625z" />
    <glyph glyph-name="timer-2"
      unicode="&#xF127;"
      horiz-adv-x="300" d="M125 284.375C119.822375 284.375 115.625 280.177625 115.625 275C115.625 269.822375 119.822375 265.625 125 265.625H175C180.1775 265.625 184.375 269.822375 184.375 275C184.375 280.177625 180.1775 284.375 175 284.375H125zM150 196.875C155.1775 196.875 159.375 192.677625 159.375 187.5V141.35375C159.375 140.50375 159.72125 139.69 160.335 139.10125L193.995 106.76C197.72875 103.17375 197.8475 97.23875 194.26 93.505C190.67375 89.77125 184.73875 89.6525 181.005 93.24L147.345 125.58C143.05125 129.705 140.625 135.40125 140.625 141.35375V187.5C140.625 192.677625 144.8225 196.875 150 196.875zM28.125 137.5C28.125 204.80975 82.69025 259.375 150 259.375C217.31 259.375 271.875 204.80975 271.875 137.5C271.875 70.19 217.31 15.625 150 15.625C82.69025 15.625 28.125 70.19 28.125 137.5zM150 240.625C93.045625 240.625 46.875 194.454375 46.875 137.5C46.875 80.54625 93.045625 34.375 150 34.375C206.95375 34.375 253.125 80.54625 253.125 137.5C253.125 194.454375 206.95375 240.625 150 240.625z" />
    <glyph glyph-name="timer-2-warning"
      unicode="&#xF128;"
      horiz-adv-x="300" d="M115.625 275C115.625 280.177625 119.822375 284.375 125 284.375H175C180.1775 284.375 184.375 280.177625 184.375 275C184.375 269.822375 180.1775 265.625 175 265.625H125C119.822375 265.625 115.625 269.822375 115.625 275zM159.375 200C159.375 205.177625 155.1775 209.375 150 209.375C144.8225 209.375 140.625 205.177625 140.625 200V137.5C140.625 132.3225 144.8225 128.125 150 128.125C155.1775 128.125 159.375 132.3225 159.375 137.5V200zM137.5 100C137.5 106.90375 143.09625 112.5 150 112.5C156.90375 112.5 162.5 106.90375 162.5 100C162.5 93.09625 156.90375 87.5 150 87.5C143.09625 87.5 137.5 93.09625 137.5 100zM28.125 137.5C28.125 204.80975 82.69025 259.375 150 259.375C217.31 259.375 271.875 204.80975 271.875 137.5C271.875 70.19 217.31 15.625 150 15.625C82.69025 15.625 28.125 70.19 28.125 137.5zM150 240.625C93.045625 240.625 46.875 194.454375 46.875 137.5C46.875 80.54625 93.045625 34.375 150 34.375C206.95375 34.375 253.125 80.54625 253.125 137.5C253.125 194.454375 206.95375 240.625 150 240.625z" />
    <glyph glyph-name="timer-2-plus"
      unicode="&#xF129;"
      horiz-adv-x="300" d="M115.625 275C115.625 280.177625 119.822375 284.375 125 284.375H175C180.1775 284.375 184.375 280.177625 184.375 275C184.375 269.822375 180.1775 265.625 175 265.625H125C119.822375 265.625 115.625 269.822375 115.625 275zM150 196.875C155.1775 196.875 159.375 192.677625 159.375 187.5V141.35375C159.375 140.50375 159.72125 139.69 160.335 139.10125L193.995 106.76C197.72875 103.17375 197.8475 97.23875 194.26 93.505C190.67375 89.77125 184.73875 89.6525 181.005 93.24L147.345 125.58C143.05125 129.705 140.625 135.40125 140.625 141.35375V187.5C140.625 192.677625 144.8225 196.875 150 196.875zM46.875 137.5C46.875 194.454375 93.045625 240.625 150 240.625C206.95375 240.625 253.125 194.454375 253.125 137.5C253.125 80.545 206.95375 34.375 150 34.375C144.065 34.375 138.25375 34.875 132.605 35.835C127.5 36.70125 122.659125 33.265 121.7925 28.16125C120.926 23.05625 124.361625 18.215 129.46625 17.34875C136.1475 16.215 143.00875 15.625 150 15.625C217.31 15.625 271.875 70.19 271.875 137.5C271.875 204.80975 217.31 259.375 150 259.375C82.69025 259.375 28.125 204.80975 28.125 137.5L28.125625 137.11C28.141875 131.9325 32.352375 127.74875 37.53 127.765C42.707625 127.78125 46.89175 131.99125 46.8755 137.16875L46.875 137.5zM15.625 75C15.625 80.1775 19.822375 84.375 25 84.375H53.125V112.5C53.125 117.6775 57.322375 121.875 62.5 121.875C67.677625 121.875 71.875 117.6775 71.875 112.5V84.375H100C105.177625 84.375 109.375 80.1775 109.375 75C109.375 69.8225 105.177625 65.625 100 65.625H71.875V37.5C71.875 32.3225 67.677625 28.125 62.5 28.125C57.322375 28.125 53.125 32.3225 53.125 37.5V65.625H25C19.822375 65.625 15.625 69.8225 15.625 75z" />
    <glyph glyph-name="timer-2-minus"
      unicode="&#xF12A;"
      horiz-adv-x="300" d="M125 284.375C119.822375 284.375 115.625 280.177625 115.625 275C115.625 269.822375 119.822375 265.625 125 265.625H175C180.1775 265.625 184.375 269.822375 184.375 275C184.375 280.177625 180.1775 284.375 175 284.375H125zM159.375 187.5C159.375 192.677625 155.1775 196.875 150 196.875C144.8225 196.875 140.625 192.677625 140.625 187.5V141.35375C140.625 135.40125 143.05125 129.705 147.345 125.58L181.005 93.24C184.73875 89.6525 190.67375 89.77125 194.26 93.505C197.8475 97.23875 197.72875 103.17375 193.995 106.76L160.335 139.10125C159.72125 139.69 159.375 140.50375 159.375 141.35375V187.5zM150 240.625C93.045625 240.625 46.875 194.454375 46.875 137.5L46.8755 137.16875C46.89175 131.99125 42.707625 127.78125 37.53 127.765C32.352375 127.74875 28.141875 131.9325 28.125625 137.11L28.125 137.5C28.125 204.80975 82.69025 259.375 150 259.375C217.31 259.375 271.875 204.80975 271.875 137.5C271.875 70.19 217.31 15.625 150 15.625C143.00875 15.625 136.1475 16.215 129.46625 17.34875C124.361625 18.215 120.926 23.05625 121.7925 28.16125C122.659125 33.265 127.5 36.70125 132.605 35.835C138.25375 34.875 144.065 34.375 150 34.375C206.95375 34.375 253.125 80.545 253.125 137.5C253.125 194.454375 206.95375 240.625 150 240.625zM25 84.375C19.822375 84.375 15.625 80.1775 15.625 75C15.625 69.8225 19.822375 65.625 25 65.625H100C105.177625 65.625 109.375 69.8225 109.375 75C109.375 80.1775 105.177625 84.375 100 84.375H25z" />
    <glyph glyph-name="thunder"
      unicode="&#xF12B;"
      horiz-adv-x="300" d="M176.98 283.822C180.7025 282.484375 183.185 278.954625 183.185 274.9995V176.041125H250C253.61125 176.041125 256.90125 173.9675 258.4575 170.71C260.0150000000001 167.4525 259.5637500000001 163.59 257.29625 160.78L143.01125 19.1125C140.515 16.02 136.34125 14.83625 132.59375 16.15875C128.845 17.4825 126.34 21.025 126.34 25V115.625H50.000125C46.370375 115.625 43.066875 117.72 41.519625 121.0025C39.97225 124.28625 40.459375 128.1675 42.769875 130.9675L166.58 280.96725C169.0975 284.017625 173.25875 285.15975 176.98 283.822zM69.89425 134.375H135.715C140.8925 134.375 145.09 130.1775 145.09 125V51.55125L230.39125 157.29125H173.81C168.6325 157.29125 164.435 161.48875 164.435 166.66625V248.913875L69.89425 134.375z" />
    <glyph glyph-name="tat-minus"
      unicode="&#xF12C;"
      horiz-adv-x="300" d="M247.08375 231.06125C247.31625 240.005375 240.00375 247.317 231.06 247.085375L158.47 245.206375C154.4675 245.10275 150.6575 243.466375 147.82625 240.635125L51.6345 144.44375C45.532625 138.34125 45.532625 128.44875 51.634625 122.34625L122.34525 51.63625C128.4475 45.53375 138.34 45.53375 144.4425 51.63625L156.99625 64.18875C160.6575 67.85 166.5925 67.85 170.25375 64.18875C173.915 60.52875 173.915 54.5925 170.25375 50.93125L157.7 38.3775C144.27625 24.95375 122.51125 24.95375 109.087 38.3775L38.37625 109.08875C24.952 122.5125 24.952 144.2775 38.37625 157.70125L134.5675 253.893375C140.79625 260.12225 149.17875 263.722125 157.985 263.95L230.575 265.829125C250.25125 266.3385 266.3375 250.253 265.8275000000001 230.576125L263.94875 157.98625C263.72125 149.18 260.12125 140.7975 253.8925 134.56875L245.8325 126.50875C242.17125 122.8475 236.235 122.8475 232.57375 126.50875C228.9125 130.17 228.9125 136.10625 232.57375 139.7675L240.63375 147.8275C243.465 150.65875 245.10125 154.46875 245.205 158.47125L247.08375 231.06125zM214.645 215.9005C219.52625 211.019 219.52625 203.1045 214.645 198.222875L201.38625 184.964625C196.505 180.083125 188.59 180.083125 183.70875 184.964625C178.8275 189.84625 178.8275 197.76075 183.70875 202.64225L196.9675 215.9005C201.84875 220.782125 209.76375 220.782125 214.645 215.9005zM200 71.875C194.8225 71.875 190.625 67.6775 190.625 62.5C190.625 57.3225 194.8225 53.125 200 53.125H275C280.1775 53.125 284.375 57.3225 284.375 62.5C284.375 67.6775 280.1775 71.875 275 71.875H200z" />
    <glyph glyph-name="target"
      unicode="&#xF12D;"
      horiz-adv-x="300" d="M150 184.375C131.015 184.375 115.625 168.985 115.625 150C115.625 131.015 131.015 115.625 150 115.625C168.985 115.625 184.375 131.015 184.375 150C184.375 168.985 168.985 184.375 150 184.375zM134.375 150C134.375 158.63 141.37 165.625 150 165.625C158.63 165.625 165.625 158.63 165.625 150C165.625 141.37 158.63 134.375 150 134.375C141.37 134.375 134.375 141.37 134.375 150zM150 271.875C155.1775 271.875 159.375 267.677625 159.375 262.5V246.42725C205.39375 242.008125 242.00875 205.39375 246.4275 159.375H262.5C267.6775 159.375 271.875 155.1775 271.875 150C271.875 144.8225 267.6775 140.625 262.5 140.625H246.4275C242.00875 94.60625 205.39375 57.99125 159.375 53.5725V37.5C159.375 32.3225 155.1775 28.125 150 28.125C144.8225 28.125 140.625 32.3225 140.625 37.5V53.5725C94.60625 57.99125 57.991875 94.60625 53.57275 140.625H37.5C32.322375 140.625 28.125 144.8225 28.125 150C28.125 155.1775 32.322375 159.375 37.5 159.375H53.57275C57.991875 205.39375 94.60625 242.008125 140.625 246.42725V262.5C140.625 267.677625 144.8225 271.875 150 271.875zM150 71.875C193.1475 71.875 228.125 106.8525 228.125 150C228.125 193.14725 193.1475 228.125 150 228.125C106.85275 228.125 71.875 193.14725 71.875 150C71.875 106.8525 106.85275 71.875 150 71.875z" />
    <glyph glyph-name="tag"
      unicode="&#xF12E;"
      horiz-adv-x="300" d="M214.645 198.222875C219.52625 203.1045 219.52625 211.019 214.645 215.9005C209.76375 220.782125 201.84875 220.782125 196.9675 215.9005L183.70875 202.64225C178.8275 197.76075 178.8275 189.84625 183.70875 184.964625C188.59 180.083125 196.505 180.083125 201.38625 184.964625L214.645 198.222875zM265.8275000000001 230.576125C266.3375 250.253 250.25125 266.3385 230.575 265.829125L157.985 263.95C149.17875 263.722125 140.79625 260.12225 134.5675 253.893375L38.37625 157.70125C24.952 144.2775 24.952 122.5125 38.37625 109.08875L109.087 38.3775C122.51125 24.95375 144.27625 24.95375 157.7 38.3775L253.8925 134.56875C260.12125 140.7975 263.72125 149.18 263.94875 157.98625L265.8275000000001 230.576125zM231.06 247.085375C240.00375 247.317 247.31625 240.005375 247.08375 231.06125L245.205 158.47125C245.10125 154.46875 243.465 150.65875 240.63375 147.8275L144.4425 51.63625C138.34 45.53375 128.4475 45.53375 122.34525 51.63625L51.634625 122.34625C45.532625 128.44875 45.532625 138.34125 51.6345 144.44375L147.82625 240.635125C150.6575 243.466375 154.4675 245.10275 158.47 245.206375L231.06 247.085375z" />
    <glyph glyph-name="tag-plus"
      unicode="&#xF12F;"
      horiz-adv-x="300" d="M231.06 247.085375C240.00375 247.317 247.31625 240.005375 247.08375 231.06125L245.205 158.47125C245.10125 154.46875 243.465 150.65875 240.63375 147.8275L232.57375 139.7675C228.9125 136.10625 228.9125 130.17 232.57375 126.50875C236.235 122.8475 242.17125 122.8475 245.8325 126.50875L253.8925 134.56875C260.12125 140.7975 263.72125 149.18 263.94875 157.98625L265.8275000000001 230.576125C266.3375 250.253 250.25125 266.3385 230.575 265.829125L157.985 263.95C149.17875 263.722125 140.79625 260.12225 134.5675 253.893375L38.37625 157.70125C24.952 144.2775 24.952 122.5125 38.37625 109.08875L109.087 38.3775C122.51125 24.95375 144.27625 24.95375 157.7 38.3775L170.25375 50.93125C173.915 54.5925 173.915 60.52875 170.25375 64.18875C166.5925 67.85 160.6575 67.85 156.99625 64.18875L144.4425 51.63625C138.34 45.53375 128.4475 45.53375 122.34525 51.63625L51.634625 122.34625C45.532625 128.44875 45.532625 138.34125 51.6345 144.44375L147.82625 240.635125C150.6575 243.466375 154.4675 245.10275 158.47 245.206375L231.06 247.085375zM214.645 198.222875C219.52625 203.1045 219.52625 211.019 214.645 215.9005C209.76375 220.782125 201.84875 220.782125 196.9675 215.9005L183.70875 202.64225C178.8275 197.76075 178.8275 189.84625 183.70875 184.964625C188.59 180.083125 196.505 180.083125 201.38625 184.964625L214.645 198.222875zM200 71.875C194.8225 71.875 190.625 67.6775 190.625 62.5C190.625 57.3225 194.8225 53.125 200 53.125H228.125V25C228.125 19.8225 232.3225 15.625 237.5 15.625C242.6775 15.625 246.875 19.8225 246.875 25V53.125H275C280.1775 53.125 284.375 57.3225 284.375 62.5C284.375 67.6775 280.1775 71.875 275 71.875H246.875V100C246.875 105.1775 242.6775 109.375 237.5 109.375C232.3225 109.375 228.125 105.1775 228.125 100V71.875H200z" />
    <glyph glyph-name="tag-off"
      unicode="&#xF130;"
      horiz-adv-x="300" d="M31.629125 281.629125L103.192125 210.066125C103.333375 209.94075 103.471875 209.8105 103.60725 209.675125C103.7425 209.53975 103.872875 209.401375 103.99825 209.26L209.25875 104C209.4 103.875 209.5375 103.745 209.67375 103.60875C209.80875 103.47375 209.93875 103.335 210.06375 103.19375L281.6287500000001 31.62875C285.29 27.9675 285.29 22.0325 281.6287500000001 18.37125C277.9675000000001 14.71 272.0325 14.71 268.37125 18.37125L203.0325 83.71L157.7 38.37875C144.27625 24.95375 122.51125 24.95375 109.087 38.37875L38.37625 109.08875C24.952 122.51375 24.952 144.27875 38.37625 157.7025L83.70775 203.034L18.370875 268.370875C14.70975 272.032 14.70975 277.968 18.370875 281.629125C22.032 285.29025 27.968 285.29025 31.629125 281.629125zM96.966 189.77575L51.6345 144.44375C45.532625 138.3425 45.532625 128.44875 51.6345 122.3475L122.34525 51.63625C128.4475 45.535 138.34 45.535 144.4425 51.63625L189.77375 96.9675L96.966 189.77575zM231.06 247.086125C240.00375 247.31775 247.31625 240.006125 247.08375 231.062125L245.205 158.4725C245.10125 154.47 243.465 150.65875 240.63375 147.8275L231.77 138.965C228.10875 135.30375 228.10875 129.3675 231.77 125.70625C235.43125 122.045 241.3675 122.045 245.02875 125.70625L253.8925 134.57C260.12125 140.79875 263.72125 149.18125 263.94875 157.9875L265.8275000000001 230.576875C266.3375 250.25375 250.25125 266.33925 230.575 265.829875L157.985 263.95075C149.17875 263.722875 140.79625 260.123 134.5675 253.894125L125.70375 245.0305C122.043125 241.369375 122.043125 235.433375 125.70375 231.77225C129.365 228.111125 135.30125 228.111 138.9625 231.77225L147.82625 240.635875C150.6575 243.467125 154.4675 245.1035 158.47 245.207125L231.06 247.086125z" />
    <glyph glyph-name="tag-delete"
      unicode="&#xF131;"
      horiz-adv-x="300" d="M231.06 247.085375C240.00375 247.317 247.31625 240.005375 247.08375 231.06125L245.205 158.47125C245.10125 154.46875 243.465 150.65875 240.63375 147.8275L232.57375 139.7675C228.9125 136.10625 228.9125 130.17 232.57375 126.50875C236.235 122.8475 242.17125 122.8475 245.8325 126.50875L253.8925 134.56875C260.12125 140.7975 263.72125 149.18 263.94875 157.98625L265.8275000000001 230.576125C266.3375 250.253 250.25125 266.3385 230.575 265.829125L157.985 263.95C149.17875 263.722125 140.79625 260.12225 134.5675 253.893375L38.37625 157.70125C24.952 144.2775 24.952 122.5125 38.37625 109.08875L109.087 38.3775C122.51125 24.95375 144.27625 24.95375 157.7 38.3775L170.25375 50.93125C173.915 54.5925 173.915 60.52875 170.25375 64.18875C166.5925 67.85 160.6575 67.85 156.99625 64.18875L144.4425 51.63625C138.34 45.53375 128.4475 45.53375 122.34525 51.63625L51.634625 122.34625C45.532625 128.44875 45.532625 138.34125 51.6345 144.44375L147.82625 240.635125C150.6575 243.466375 154.4675 245.10275 158.47 245.206375L231.06 247.085375zM214.645 198.222875C219.52625 203.1045 219.52625 211.019 214.645 215.9005C209.76375 220.782125 201.84875 220.782125 196.9675 215.9005L183.70875 202.64225C178.8275 197.76075 178.8275 189.84625 183.70875 184.964625C188.59 180.083125 196.505 180.083125 201.38625 184.964625L214.645 198.222875zM202.52375 44.13C198.8625 40.46875 198.8625 34.5325 202.52375 30.87125C206.18375 27.21 212.12 27.21 215.78125 30.87125L235.825 50.915L255.87125 30.87C259.5325 27.20875 265.4675000000001 27.20875 269.1287500000001 30.87C272.79 34.53125 272.79 40.4675 269.1287500000001 44.1275L249.08375 64.17375L269.1287500000001 84.21875C272.79 87.88 272.79 93.81625 269.1287500000001 97.4775C265.4675000000001 101.13875 259.5325 101.13875 255.87125 97.4775L235.825 77.43125L215.78125 97.47625C212.12 101.1375 206.185 101.1375 202.52375 97.47625C198.8625 93.815 198.8625 87.87875 202.52375 84.2175L222.5675 64.17375L202.52375 44.13z" />
    <glyph glyph-name="tag-2"
      unicode="&#xF132;"
      horiz-adv-x="300" d="M247.08375 231.06125C247.31625 240.005375 240.00375 247.317 231.06 247.085375L158.47 245.206375C154.4675 245.10275 150.6575 243.466375 147.82625 240.635125L51.6345 144.44375C45.532625 138.34125 45.532625 128.44875 51.634625 122.34625L122.34525 51.63625C128.4475 45.53375 138.34 45.53375 144.4425 51.63625L240.63375 147.8275C243.465 150.65875 245.10125 154.46875 245.205 158.47125L247.08375 231.06125zM230.575 265.829125C250.25125 266.3385 266.3375 250.253 265.8275000000001 230.576125L263.94875 157.98625C263.72125 149.18 260.12125 140.7975 253.8925 134.56875L157.7 38.3775C144.27625 24.95375 122.51125 24.95375 109.087 38.3775L38.37625 109.08875C24.952 122.5125 24.952 144.2775 38.37625 157.70125L134.5675 253.893375C140.79625 260.12225 149.17875 263.722125 157.985 263.95L230.575 265.829125z" />
    <glyph glyph-name="tablet-vertical"
      unicode="&#xF133;"
      horiz-adv-x="300" d="M125 71.875C119.822375 71.875 115.625 67.6775 115.625 62.5C115.625 57.3225 119.822375 53.125 125 53.125H175C180.1775 53.125 184.375 57.3225 184.375 62.5C184.375 67.6775 180.1775 71.875 175 71.875H125zM75 284.375C56.01525 284.375 40.625 268.98475 40.625 250V50C40.625 31.015 56.01525 15.625 75 15.625H225C243.985 15.625 259.375 31.015 259.375 50V250C259.375 268.98475 243.985 284.375 225 284.375H75zM59.375 250C59.375 258.6295 66.3705 265.625 75 265.625H225C233.63 265.625 240.625 258.6295 240.625 250V50C240.625 41.37 233.63 34.375 225 34.375H75C66.3705 34.375 59.375 41.37 59.375 50V250z" />
    <glyph glyph-name="tablet-vertical-off"
      unicode="&#xF134;"
      horiz-adv-x="300" d="M95.733125 265.625H225C233.63 265.625 240.625 258.6295 240.625 250V120.73375C240.625 115.555 244.8225 111.35875 250 111.35875C255.1775 111.35875 259.375 115.555 259.375 120.73375V250C259.375 268.98475 243.985 284.375 225 284.375H95.733125C90.5555 284.375 86.358125 280.177625 86.358125 275C86.358125 269.822375 90.5555 265.625 95.733125 265.625zM125 71.875C119.822375 71.875 115.625 67.6775 115.625 62.5C115.625 57.3225 119.822375 53.125 125 53.125H175C180.1775 53.125 184.375 57.3225 184.375 62.5C184.375 67.6775 180.1775 71.875 175 71.875H125zM31.629125 281.629125L56.23075 257.0275C56.503625 256.784625 56.762125 256.526125 57.005 256.25325L256.23125 57.0275C256.50375 56.785 256.7625 56.52625 257.005 56.25375L281.6287500000001 31.62875C285.29 27.9675 285.29 22.0325 281.6287500000001 18.37125C277.9675000000001 14.71 272.0325 14.71 268.37125 18.37125L254.46125 32.28C248.44625 22.3 237.5025 15.625 225 15.625H75C56.01525 15.625 40.625 31.015 40.625 50L40.625 246.11675L18.370875 268.370875C14.70975 272.032 14.70975 277.968 18.370875 281.629125C22.032 285.29025 27.968 285.29025 31.629125 281.629125zM59.375 227.36675L59.375 50C59.375 41.37 66.3705 34.375 75 34.375H225C232.42875 34.375 238.6475 39.56 240.23375 46.50875L59.375 227.36675z" />
    <glyph glyph-name="tablet-horizontal"
      unicode="&#xF135;"
      horiz-adv-x="300" d="M125 96.875C119.822375 96.875 115.625 92.6775 115.625 87.5C115.625 82.3225 119.822375 78.125 125 78.125H175C180.1775 78.125 184.375 82.3225 184.375 87.5C184.375 92.6775 180.1775 96.875 175 96.875H125zM15.625 75C15.625 56.015 31.01525 40.625 50 40.625H250C268.985 40.625 284.375 56.015 284.375 75V225C284.375 243.98475 268.985 259.375 250 259.375H50C31.01525 259.375 15.625 243.98475 15.625 225V75zM50 59.375C41.3705 59.375 34.375 66.37 34.375 75L34.375 225C34.375 233.6295 41.3705 240.625 50 240.625L250 240.625C258.63 240.625 265.625 233.6295 265.625 225V75C265.625 66.37 258.63 59.375 250 59.375H50z" />
    <glyph glyph-name="tablet-horizontal-off"
      unicode="&#xF136;"
      horiz-adv-x="300" d="M115.625 87.5C115.625 92.6775 119.822375 96.875 125 96.875H175C180.1775 96.875 184.375 92.6775 184.375 87.5C184.375 82.3225 180.1775 78.125 175 78.125H125C119.822375 78.125 115.625 82.3225 115.625 87.5zM31.629125 281.629125C27.968 285.29025 22.032 285.29025 18.370875 281.629125C14.70975 277.968 14.70975 272.032 18.370875 268.370875L32.28 254.46175C22.299625 248.446125 15.625 237.5025 15.625 225V75C15.625 56.015 31.01525 40.625 50 40.625H246.11625L268.37125 18.37125C272.0325 14.71 277.9675000000001 14.71 281.6287500000001 18.37125C285.29 22.0325 285.29 27.9675 281.6287500000001 31.62875L257.02875 56.23C256.785 56.50375 256.52625 56.7625 256.2525 57.00625L31.629125 281.629125zM227.36625 59.375H50C41.3705 59.375 34.375 66.37 34.375 75L34.375 225C34.375 232.429125 39.559875 238.64725 46.508375 240.233375L227.36625 59.375zM111.35825 250C111.35825 255.177625 115.555625 259.375 120.73325 259.375L250 259.375C268.985 259.375 284.375 243.98475 284.375 225V95.73375C284.375 90.555 280.1775 86.35875 275 86.35875C269.8225 86.35875 265.625 90.555 265.625 95.73375V225C265.625 233.629375 258.63 240.625 250 240.625L120.73325 240.625C115.555625 240.625 111.35825 244.822375 111.35825 250z" />
    <glyph glyph-name="sunset"
      unicode="&#xF137;"
      horiz-adv-x="300" d="M159.375 275C159.375 280.177625 155.1775 284.375 150 284.375C144.8225 284.375 140.625 280.177625 140.625 275L140.625 222.63325L119.129125 244.129125C115.468 247.79025 109.532 247.79025 105.870875 244.129125C102.20975 240.468 102.20975 234.532 105.870875 230.870875L134.5325 202.20975C143.075 193.667 156.925 193.667 165.4675 202.20975L194.12875 230.870875C197.79 234.532 197.79 240.468 194.12875 244.129125C190.4675 247.79025 184.5325 247.79025 180.87125 244.129125L159.375 222.63325L159.375 275zM150 78.125C127.56375 78.125 109.375 59.93625 109.375 37.5C109.375 32.3225 105.177625 28.125 100 28.125C94.822375 28.125 90.625 32.3225 90.625 37.5C90.625 70.2925 117.208125 96.875 150 96.875C182.7925 96.875 209.375 70.2925 209.375 37.5C209.375 32.3225 205.1775 28.125 200 28.125C194.8225 28.125 190.625 32.3225 190.625 37.5C190.625 59.93625 172.43625 78.125 150 78.125zM25 46.875C19.822375 46.875 15.625 42.6775 15.625 37.5C15.625 32.3225 19.822375 28.125 25 28.125H62.5C67.677625 28.125 71.875 32.3225 71.875 37.5C71.875 42.6775 67.677625 46.875 62.5 46.875H25zM228.125 37.5C228.125 42.6775 232.3225 46.875 237.5 46.875H275C280.1775 46.875 284.375 42.6775 284.375 37.5C284.375 32.3225 280.1775 28.125 275 28.125H237.5C232.3225 28.125 228.125 32.3225 228.125 37.5zM159.375 162.5C159.375 167.6775 155.1775 171.875 150 171.875C144.8225 171.875 140.625 167.6775 140.625 162.5V125C140.625 119.8225 144.8225 115.625 150 115.625C155.1775 115.625 159.375 119.8225 159.375 125V162.5zM208.88125 96.3825C205.22 100.04375 205.22 105.98 208.88125 109.64125L227.59875 128.35875C231.26 132.02 237.19625 132.02 240.8575 128.35875C244.51875 124.6975 244.51875 118.76125 240.8575 115.1L222.14 96.3825C218.47875 92.72125 212.5425 92.72125 208.88125 96.3825zM72.400625 128.35875C68.7395 132.02 62.8035 132.02 59.142375 128.35875C55.48125 124.6975 55.48125 118.7625 59.142375 115.10125L77.859875 96.38375C81.521 92.7225 87.457 92.7225 91.118125 96.38375C94.77925 100.045 94.77925 105.98 91.118125 109.64125L72.400625 128.35875z" />
    <glyph glyph-name="sunset-line"
      unicode="&#xF138;"
      horiz-adv-x="300" d="M150 284.375C155.1775 284.375 159.375 280.177625 159.375 275L159.375 235.13325L180.87125 256.629125C184.5325 260.29025 190.4675 260.29025 194.12875 256.629125C197.79 252.968 197.79 247.032 194.12875 243.370875L165.4675 214.70975C156.925 206.167 143.075 206.167 134.5325 214.70975L105.870875 243.370875C102.20975 247.032 102.20975 252.968 105.870875 256.629125C109.532 260.29025 115.468 260.29025 119.129125 256.629125L140.625 235.13325L140.625 275C140.625 280.177625 144.8225 284.375 150 284.375zM25 46.875C19.822375 46.875 15.625 42.6775 15.625 37.5C15.625 32.3225 19.822375 28.125 25 28.125L275 28.125C280.1775 28.125 284.375 32.3225 284.375 37.5C284.375 42.6775 280.1775 46.875 275 46.875H208.63875C204.14375 75.2125 179.6025 96.875 150 96.875C120.398125 96.875 95.85575 75.2125 91.361 46.875H25zM150 78.125C169.21 78.125 185.30625 64.79125 189.5375 46.875L110.462125 46.875C114.694375 64.79125 130.79 78.125 150 78.125zM159.375 150C159.375 155.1775 155.1775 159.375 150 159.375C144.8225 159.375 140.625 155.1775 140.625 150V125C140.625 119.8225 144.8225 115.625 150 115.625C155.1775 115.625 159.375 119.8225 159.375 125V150zM205.24375 92.7425C201.5825 96.40375 201.5825 102.33875 205.24375 106L222.92125 123.67875C226.5825 127.33875 232.51875 127.33875 236.18 123.67875C239.84125 120.0175 239.84125 114.08125 236.18 110.42L218.5025 92.7425C214.84125 89.08125 208.905 89.08125 205.24375 92.7425zM77.079 123.6775C73.41775 127.33875 67.481875 127.33875 63.82075 123.6775C60.1595 120.01625 60.1595 114.08125 63.82075 110.42L81.498375 92.7425C85.1595 89.08125 91.0955 89.08125 94.756625 92.7425C98.41775 96.4025 98.41775 102.33875 94.756625 106L77.079 123.6775z" />
    <glyph glyph-name="sunrise"
      unicode="&#xF139;"
      horiz-adv-x="300" d="M180.87125 230.86975C184.5325 227.2085 190.4675 227.2085 194.12875 230.86975C197.79 234.530875 197.79 240.46675 194.12875 244.128L165.4675 272.789125C156.925 281.3318750000001 143.075 281.3318750000001 134.5325 272.789125L105.870875 244.128C102.20975 240.46675 102.20975 234.530875 105.870875 230.86975C109.532 227.2085 115.468 227.2085 119.129125 230.86975L140.625 252.365625V199.998875C140.625 194.821125 144.8225 190.623875 150 190.623875C155.1775 190.623875 159.375 194.821125 159.375 199.998875V252.365625L180.87125 230.86975zM150 78.12375C127.56375 78.12375 109.375 59.935 109.375 37.49875C109.375 32.32125 105.177625 28.12375 100 28.12375C94.822375 28.12375 90.625 32.32125 90.625 37.49875C90.625 70.29125 117.208125 96.87375 150 96.87375C182.7925 96.87375 209.375 70.29125 209.375 37.49875C209.375 32.32125 205.1775 28.12375 200 28.12375C194.8225 28.12375 190.625 32.32125 190.625 37.49875C190.625 59.935 172.43625 78.12375 150 78.12375zM37.5 46.87375C32.322375 46.87375 28.125 42.67625 28.125 37.49875C28.125 32.32125 32.322375 28.12375 37.5 28.12375H62.5C67.677625 28.12375 71.875 32.32125 71.875 37.49875C71.875 42.67625 67.677625 46.87375 62.5 46.87375H37.5zM228.125 37.49875C228.125 42.67625 232.3225 46.87375 237.5 46.87375H262.5C267.6775 46.87375 271.875 42.67625 271.875 37.49875C271.875 32.32125 267.6775 28.12375 262.5 28.12375H237.5C232.3225 28.12375 228.125 32.32125 228.125 37.49875zM159.375 149.99875C159.375 155.17625 155.1775 159.37375 150 159.37375C144.8225 159.37375 140.625 155.17625 140.625 149.99875V124.99875C140.625 119.82125 144.8225 115.62375 150 115.62375C155.1775 115.62375 159.375 119.82125 159.375 124.99875V149.99875zM205.2425 92.74125C201.58125 96.4025 201.58125 102.33875 205.2425 105.99875L222.92 123.6775C226.58125 127.33875 232.5175 127.33875 236.17875 123.6775C239.83875 120.01625 239.83875 114.08 236.17875 110.41875L218.5 92.74125C214.83875 89.08 208.90375 89.08 205.2425 92.74125zM77.079 123.6775C73.41775 127.33875 67.481875 127.33875 63.82075 123.6775C60.1595 120.0175 60.1595 114.08125 63.82075 110.42L81.498375 92.7425C85.1595 89.08125 91.0955 89.08125 94.756625 92.7425C98.41775 96.40375 98.41775 102.33875 94.756625 106L77.079 123.6775z" />
    <glyph glyph-name="sunrise-line"
      unicode="&#xF13A;"
      horiz-adv-x="300" d="M180.87125 230.86975C184.5325 227.2085 190.4675 227.2085 194.12875 230.86975C197.79 234.530875 197.79 240.46675 194.12875 244.128L165.4675 272.789125C156.925 281.3318750000001 143.075 281.3318750000001 134.5325 272.789125L105.870875 244.128C102.20975 240.46675 102.20975 234.530875 105.870875 230.86975C109.532 227.2085 115.468 227.2085 119.129125 230.86975L140.625 252.365625V212.498875C140.625 207.321125 144.8225 203.123875 150 203.123875C155.1775 203.123875 159.375 207.321125 159.375 212.498875V252.365625L180.87125 230.86975zM15.625 37.49875C15.625 42.67625 19.822375 46.87375 25 46.87375H91.361C95.85575 75.21125 120.398125 96.87375 150 96.87375C179.6025 96.87375 204.14375 75.21125 208.63875 46.87375H275C280.1775 46.87375 284.375 42.67625 284.375 37.49875C284.375 32.32125 280.1775 28.12375 275 28.12375L25 28.12375C19.822375 28.12375 15.625 32.32125 15.625 37.49875zM150 78.12375C130.79 78.12375 114.694375 64.79125 110.462125 46.87375H189.5375C185.30625 64.79125 169.21 78.12375 150 78.12375zM159.375 149.99875C159.375 155.17625 155.1775 159.37375 150 159.37375C144.8225 159.37375 140.625 155.17625 140.625 149.99875V124.99875C140.625 119.82125 144.8225 115.62375 150 115.62375C155.1775 115.62375 159.375 119.82125 159.375 124.99875V149.99875zM205.24375 92.74125C201.5825 96.4025 201.5825 102.33875 205.24375 105.99875L222.92125 123.6775C226.5825 127.33875 232.51875 127.33875 236.18 123.6775C239.84125 120.01625 239.84125 114.08 236.18 110.41875L218.5025 92.74125C214.84125 89.08 208.905 89.08 205.24375 92.74125zM77.079 123.67625C73.41775 127.3375 67.481875 127.3375 63.82075 123.67625C60.1595 120.015 60.1595 114.08 63.82075 110.41875L81.498375 92.74125C85.1595 89.08 91.0955 89.08 94.756625 92.74125C98.41775 96.4025 98.41775 102.3375 94.756625 105.99875L77.079 123.67625z" />
    <glyph glyph-name="sun"
      unicode="&#xF13B;"
      horiz-adv-x="300" d="M150 284.375C144.8225 284.375 140.625 280.177625 140.625 275V250C140.625 244.822375 144.8225 240.625 150 240.625C155.1775 240.625 159.375 244.822375 159.375 250V275C159.375 280.177625 155.1775 284.375 150 284.375zM78.125 150C78.125 189.6955 110.3045 221.875 150 221.875C189.695 221.875 221.875 189.6955 221.875 150C221.875 110.305 189.695 78.125 150 78.125C110.3045 78.125 78.125 110.305 78.125 150zM150 203.125C120.659875 203.125 96.875 179.340125 96.875 150C96.875 120.66 120.659875 96.875 150 96.875C179.34 96.875 203.125 120.66 203.125 150C203.125 179.340125 179.34 203.125 150 203.125zM140.625 50C140.625 55.1775 144.8225 59.375 150 59.375C155.1775 59.375 159.375 55.1775 159.375 50V25C159.375 19.8225 155.1775 15.625 150 15.625C144.8225 15.625 140.625 19.8225 140.625 25V50zM284.375 150C284.375 155.1775 280.1775 159.375 275 159.375H250C244.8225 159.375 240.625 155.1775 240.625 150C240.625 144.8225 244.8225 140.625 250 140.625H275C280.1775 140.625 284.375 144.8225 284.375 150zM50 159.375C55.177625 159.375 59.375 155.1775 59.375 150C59.375 144.8225 55.177625 140.625 50 140.625H25C19.822375 140.625 15.625 144.8225 15.625 150C15.625 155.1775 19.822375 159.375 25 159.375H50zM245.01625 54.9825C248.6775 58.64375 248.6775 64.58 245.01625 68.24125L227.3375 85.91875C223.6775 89.58 217.74125 89.58 214.08 85.91875C210.41875 82.2575 210.41875 76.32125 214.08 72.66L231.7575 54.9825C235.41875 51.32125 241.355 51.32125 245.01625 54.9825zM85.9185 227.338375C89.579625 223.67725 89.579625 217.74125 85.9185 214.080125C82.257375 210.418875 76.321375 210.418875 72.66025 214.080125L54.9825 231.75775C51.321375 235.418875 51.321375 241.354875 54.9825 245.016C58.64375 248.67725 64.579625 248.67725 68.24075 245.016L85.9185 227.338375zM54.98275 54.98375C58.644 51.3225 64.579875 51.3225 68.241125 54.98375L85.91875 72.6625C89.579875 76.3225 89.579875 82.25875 85.91875 85.92C82.257625 89.58125 76.321625 89.58125 72.6605 85.92L54.98275 68.2425C51.321625 64.58125 51.321625 58.645 54.98275 54.98375zM227.33875 214.0815C223.6775 210.420375 217.74125 210.420375 214.08 214.0815C210.41875 217.742625 210.41875 223.678625 214.08 227.33975L231.7575 245.0175C235.41875 248.678625 241.355 248.678625 245.01625 245.0175C248.6775 241.35625 248.6775 235.420375 245.01625 231.75925L227.33875 214.0815z" />
    <glyph glyph-name="strikethrough"
      unicode="&#xF13C;"
      horiz-adv-x="300" d="M137.5 271.875C104.708125 271.875 78.125 245.291875 78.125 212.5V206.25C78.125 201.072375 82.322375 196.875 87.5 196.875C92.677625 196.875 96.875 201.072375 96.875 206.25V212.5C96.875 234.936625 115.063375 253.125 137.5 253.125H225C230.1775 253.125 234.375 257.322375 234.375 262.5C234.375 267.677625 230.1775 271.875 225 271.875H137.5zM25 140.625C19.822375 140.625 15.625 144.8225 15.625 150C15.625 155.1775 19.822375 159.375 25 159.375H275C280.1775 159.375 284.375 155.1775 284.375 150C284.375 144.8225 280.1775 140.625 275 140.625H218.30125C228.27 130.00375 234.375 115.715 234.375 100V87.5C234.375 54.7075 207.7925 28.125 175 28.125H93C87.822375 28.125 83.625 32.3225 83.625 37.5C83.625 42.6775 87.822375 46.875 93 46.875H175C197.43625 46.875 215.625 65.06375 215.625 87.5V100C215.625 122.43625 197.43625 140.625 175 140.625H25z" />
    <glyph glyph-name="stop"
      unicode="&#xF13D;"
      horiz-adv-x="300" d="M240.625 75V225C240.625 233.6295 233.63 240.625 225 240.625L75 240.625C66.370625 240.625 59.375 233.6295 59.375 225L59.375 75C59.375 66.37 66.3705 59.375 75 59.375H225C233.63 59.375 240.625 66.37 240.625 75zM259.375 225V75C259.375 56.015 243.985 40.625 225 40.625H75C56.01525 40.625 40.625 56.015 40.625 75L40.625 225C40.625 243.98475 56.01525 259.375 75 259.375L225 259.375C243.985 259.375 259.375 243.98475 259.375 225z" />
    <glyph glyph-name="stars"
      unicode="&#xF13E;"
      horiz-adv-x="300" d="M183.47375 273.76875C190.1575 287.910375 209.845 287.9104625 216.52875 273.76875L232.72375 239.50675L268.69875 234.048625C284.235 231.691375 289.24125 212.600875 278.9525 202.1295L252.77875 175.4905C252.77875 175.4905 252.76375 175.46625 252.7537500000001 175.43225C252.735 175.371625 252.7275 175.296125 252.74 175.2185L258.92625 137.5575C261.2875 123.1825 246.48625 110.0025 232.14 117.8775L200.00125 135.52L167.8625 117.8775C153.51625 110.0025 138.71375 123.1825 141.075 137.5575L147.26125 175.2185C147.275 175.296125 147.2675 175.3715 147.24875 175.43225C147.2375 175.46625 147.22375 175.4905 147.22375 175.4905L121.049875 202.1295C110.76125 212.600875 115.767125 231.691375 131.30375 234.048625L167.27875 239.50675L183.47375 273.76875zM200.00125 264.8595000000001L184.19125 231.41225C181.60625 225.9435 176.50375 221.941875 170.3575 221.00925L134.395 215.553C134.37 215.450625 134.375 215.367125 134.3825 215.329L134.38625 215.315C134.38625 215.315 134.38875 215.30625 134.425 215.270375L160.60375 188.62525C164.88375 184.26975 166.73875 178.115125 165.76375 172.17875L159.61375 134.73875L191.32125 152.14375C196.74125 155.12 203.26 155.12 208.68125 152.14375L240.38875 134.73875L234.23875 172.17875C233.26375 178.115125 235.11875 184.26975 239.3975 188.62525L265.5775000000001 215.270375C265.6125 215.30625 265.615 215.315 265.615 215.315L265.6187500000001 215.329C265.6275 215.367125 265.6325 215.450625 265.6075 215.553L229.645 221.00925C223.49875 221.941875 218.395 225.9435 215.81 231.41225L200.00125 264.8595000000001zM66.736125 137.57875C72.595375 149.97375 89.90675 149.97375 95.766 137.57875L107.378625 113.01L133.12625 109.10375C146.8175 107.02625 151.0875 90.315 142.13625 81.205L123.2865 62.02L127.7575 34.79875C129.80375 22.34625 116.9245 10.63375 104.22725 17.60375L81.251125 30.21625L58.274875 17.60375C45.577625 10.63375 32.698625 22.34625 34.744125 34.79875L39.215625 62.02L20.365875 81.205C11.414975 90.315 15.68525 107.02625 29.37625 109.10375L55.1235 113.01L66.736125 137.57875zM81.251125 124.41L71.512875 103.8075C69.255875 99.0325 64.785375 95.51125 59.36975 94.69L36.770875 91.26125L53.37525 74.36125C57.12275 70.5475 58.735125 65.175 57.885875 60.005L54.053875 36.67625L73.613125 47.4125C78.38125 50.03 84.120875 50.03 88.889 47.4125L108.448375 36.67625L104.61625 60.005C103.767 65.175 105.3795 70.5475 109.126875 74.36125L125.73125 91.26125L103.132375 94.69C97.71675 95.51125 93.24625 99.0325 90.98925 103.8075L81.251125 124.41z" />
    <glyph glyph-name="star"
      unicode="&#xF13F;"
      horiz-adv-x="300" d="M129.44625 258.65C137.78125 276.28325 162.22 276.283375 170.555 258.65L194.905 207.13425C195.59875 205.665625 196.81875 204.86275 197.9825 204.68625L252.34375 196.4385C271.57125 193.52125 278.0475 169.67375 265.08375 156.48L225.8137500000001 116.51125C224.77375 115.45375 224.20125 113.79125 224.48375 112.0675L233.76375 55.5775C236.75625 37.3575 218.1075 21.24 200.46375 30.925L151.7425 57.67C150.63625 58.2775 149.365 58.2775 148.25875 57.67L99.53725 30.925C81.894 21.24 63.245 37.3575 66.237875 55.5775L75.517375 112.0675C75.800375 113.79125 75.227375 115.45375 74.18725 116.51125L34.9175 156.48C21.9535 169.67375 28.430375 193.52125 47.6575 196.4385L102.01925 204.68625C103.1825 204.86275 104.402625 205.665625 105.09675 207.13425L129.44625 258.65zM150.00125 253.125C148.6875 253.125 147.2675 252.47475 146.39875 250.637375L122.0485 199.121625C118.80775 192.265375 112.4405 187.30275 104.831875 186.148375L50.47 177.900625C48.974125 177.673625 47.70375 176.6325 47.128875 174.77375C46.549625 172.9 46.953875 170.9825 48.292125 169.62L87.56175 129.6525C92.905125 124.215 95.246125 116.49625 94.019375 109.02875L84.74 52.5375C84.38125 50.35375 85.260875 48.65625 86.526 47.69125C87.750875 46.75625 89.12825 46.60125 90.51475 47.3625L139.23625 74.10625C145.9625 77.79875 154.03875 77.79875 160.765 74.10625L209.48625 47.3625C210.87375 46.60125 212.25 46.75625 213.475 47.69125C214.74125 48.65625 215.62 50.35375 215.26125 52.5375L205.9825 109.02875C204.755 116.49625 207.09625 124.215 212.44 129.6525L251.71 169.62C253.0475 170.9825 253.4525 172.9 252.8725 174.77375C252.2975 176.6325 251.0275 177.673625 249.53125 177.900625L195.17 186.148375C187.56125 187.30275 181.19375 192.265375 177.9525 199.121625L153.6025 250.637375C152.735 252.47475 151.31375 253.125 150.00125 253.125z" />
    <glyph glyph-name="square"
      unicode="&#xF140;"
      horiz-adv-x="300" d="M28.125 237.5C28.125 256.48475 43.51525 271.875 62.5 271.875H237.5C256.485 271.875 271.875 256.48475 271.875 237.5V62.5C271.875 43.515 256.485 28.125 237.5 28.125H62.5C43.51525 28.125 28.125 43.515 28.125 62.5V237.5zM62.5 253.125C53.8705 253.125 46.875 246.1295 46.875 237.5V62.5C46.875 53.87 53.8705 46.875 62.5 46.875H237.5C246.13 46.875 253.125 53.87 253.125 62.5V237.5C253.125 246.1295 246.13 253.125 237.5 253.125H62.5z" />
    <glyph glyph-name="speaker"
      unicode="&#xF141;"
      horiz-adv-x="300" d="M103.125 112.5C103.125 138.38875 124.111625 159.375 150 159.375C175.88875 159.375 196.875 138.38875 196.875 112.5C196.875 86.61125 175.88875 65.625 150 65.625C124.111625 65.625 103.125 86.61125 103.125 112.5zM150 140.625C134.4675 140.625 121.875 128.0325 121.875 112.5C121.875 96.9675 134.4675 84.375 150 84.375C165.5325 84.375 178.125 96.9675 178.125 112.5C178.125 128.0325 165.5325 140.625 150 140.625zM150 234.375C131.015 234.375 115.625 218.98475 115.625 200C115.625 181.01525 131.015 165.625 150 165.625C168.985 165.625 184.375 181.01525 184.375 200C184.375 218.98475 168.985 234.375 150 234.375zM134.375 200C134.375 208.6295 141.37 215.625 150 215.625C158.63 215.625 165.625 208.6295 165.625 200C165.625 191.3705 158.63 184.375 150 184.375C141.37 184.375 134.375 191.3705 134.375 200zM234.375 237.5V62.5C234.375 43.515 218.985 28.125 200 28.125H100C81.01525 28.125 65.625 43.515 65.625 62.5V237.5C65.625 256.48475 81.01525 271.875 100 271.875H200C218.985 271.875 234.375 256.48475 234.375 237.5zM215.625 62.5V237.5C215.625 246.1295 208.63 253.125 200 253.125H100C91.3705 253.125 84.375 246.1295 84.375 237.5L84.375 62.5C84.375 53.87 91.3705 46.875 100 46.875H200C208.63 46.875 215.625 53.87 215.625 62.5z" />
    <glyph glyph-name="speaker-2"
      unicode="&#xF142;"
      horiz-adv-x="300" d="M103.125125 112.5C103.125125 138.38875 124.11175 159.375 150 159.375C175.88875 159.375 196.875 138.38875 196.875 112.5C196.875 86.61125 175.88875 65.625 150 65.625C124.11175 65.625 103.125125 86.61125 103.125125 112.5zM150 140.625C134.4675 140.625 121.875125 128.0325 121.875125 112.5C121.875125 96.9675 134.4675 84.375 150 84.375C165.5325 84.375 178.125 96.9675 178.125 112.5C178.125 128.0325 165.5325 140.625 150 140.625zM150 221.875C137.91875 221.875 128.125 212.08125 128.125 200C128.125 187.91875 137.91875 178.125 150 178.125C162.08125 178.125 171.875 187.91875 171.875 200C171.875 212.08125 162.08125 221.875 150 221.875zM146.875 200C146.875 201.725875 148.27375 203.125 150 203.125C151.72625 203.125 153.125 201.725875 153.125 200C153.125 198.274125 151.72625 196.875 150 196.875C148.27375 196.875 146.875 198.274125 146.875 200zM256.23375 66.29625C258.4962500000001 45.93375 242.55625 28.125 222.06875 28.125H77.931875C57.444 28.125 41.504625 45.93375 43.767125 66.29625L63.211625 241.296125C65.145875 258.70475 79.860625 271.875 97.376375 271.875H202.62375C220.14 271.875 234.855 258.70475 236.78875 241.296125L256.23375 66.29625zM222.06875 46.875C231.38125 46.875 238.62625 54.97 237.5975 64.225L218.15375 239.2255C217.27375 247.1385 210.58625 253.125 202.62375 253.125L97.376375 253.125C89.414625 253.125 82.726125 247.1385 81.846875 239.2255L62.402375 64.225C61.374 54.97 68.61925 46.875 77.931875 46.875H222.06875z" />
    <glyph glyph-name="space-between-vertical"
      unicode="&#xF143;"
      horiz-adv-x="300" d="M181.4975 224.047875C185.475 220.73325 191.3875 221.270625 194.70125 225.24825C198.01625 229.225875 197.47875 235.137375 193.50125 238.452125L156.06375 269.650125C154.42875 271.037875 152.3125 271.875 150 271.875C149.95625 271.875 149.91375 271.87475 149.87125 271.874125C147.6275 271.844 145.57375 271.025625 143.975 269.6835L106.49775 238.452125C102.520125 235.137375 101.98275 229.225875 105.297375 225.24825C108.612 221.27075 114.523625 220.73325 118.50125 224.048L140.625 242.48425L140.625 57.51625L118.50175 75.9525C114.524125 79.26625 108.6125 78.72875 105.297875 74.75125C101.98325 70.77375 102.520625 64.8625 106.49825 61.5475L143.93625 30.34875C145.5525 28.9775 147.63875 28.145 149.92 28.125L150 28.125L150.08 28.125C152.345 28.14375 154.4175 28.96625 156.02875 30.32L193.50125 61.5475C197.47875 64.8625 198.01625 70.77375 194.7025 74.75125C191.3875 78.72875 185.47625 79.26625 181.49875 75.9525L159.375 57.51625L159.375 242.48375L181.4975 224.047875z" />
    <glyph glyph-name="space-between-horizontal"
      unicode="&#xF144;"
      horiz-adv-x="300" d="M75.952125 181.49825C79.26675 185.475875 78.729375 191.387375 74.75175 194.702C70.774125 198.01675 64.862625 197.47925 61.548 193.501625L30.34025 156.0525C28.95825 154.41875 28.125 152.3075 28.125 150C28.125 147.69625 28.955625 145.5875 30.33375 143.955L61.547875 106.49875C64.862625 102.52125 70.774125 101.98375 74.75175 105.2975C78.729375 108.6125 79.26675 114.52375 75.952125 118.50125L57.516 140.625L237.1575 140.625L212.64875 119.6175C208.7175 116.24875 208.2625 110.33 211.6325 106.39875C215.00125 102.4675 220.92 102.0125 224.85125 105.3825L268.55875 142.845C268.6625 142.93375 268.765 143.025 268.86625 143.1175C269.0775 143.3125 269.27875 143.5175 269.46875 143.72875C271.00875 145.44 271.875 147.67 271.875 150C271.875 152.395 270.96 154.685 269.33875 156.4125C269.1075 156.66 268.86125 156.895 268.60125 157.1175L212.64875 119.6175L268.5537500000001 157.15875L224.85125 194.618C220.92 197.987625 215.00125 197.532375 211.6325 193.601125C208.2625 189.67 208.7175 183.7515 212.64875 180.382L237.1575 159.375L57.516125 159.375L75.952125 181.49825z" />
    <glyph glyph-name="sort"
      unicode="&#xF145;"
      horiz-adv-x="300" d="M59.375 88.395L44.70225 106.00125C41.387625 109.97875 35.476125 110.51625 31.4985 107.2025C27.520875 103.8875 26.9835 97.97625 30.298125 93.99875L61.48825 56.57C63.2075 54.4675 65.822 53.125 68.75 53.125C68.749875 53.125 68.750125 53.125 68.75 53.125C71.047875 53.125 73.152875 53.95125 74.78325 55.32375C75.2165 55.68875 75.616375 56.09125 75.977375 56.52875L107.20225 93.99875C110.517 97.97625 109.9795 103.8875 106.002 107.2025C102.024375 110.51625 96.112875 109.97875 92.798125 106.00125L78.125 88.39375L78.125 237.5C78.125 242.677625 73.927625 246.875 68.75 246.875C63.572375 246.875 59.375 242.677625 59.375 237.5L59.375 88.395zM271.875 237.5C271.875 232.322375 267.6775 228.125 262.5 228.125H150C144.8225 228.125 140.625 232.322375 140.625 237.5C140.625 242.677625 144.8225 246.875 150 246.875H262.5C267.6775 246.875 271.875 242.677625 271.875 237.5zM246.875 150C246.875 144.8225 242.6775 140.625 237.5 140.625L150 140.625C144.8225 140.625 140.625 144.8225 140.625 150C140.625 155.1775 144.8225 159.375 150 159.375L237.5 159.375C242.6775 159.375 246.875 155.1775 246.875 150zM200 40.625C205.1775 40.625 209.375 44.8225 209.375 50C209.375 55.1775 205.1775 59.375 200 59.375H150C144.8225 59.375 140.625 55.1775 140.625 50C140.625 44.8225 144.8225 40.625 150 40.625H200z" />
    </font>
</defs>
</svg>
